<svg width="207" height="127" viewBox="0 0 207 127" fill="none" xmlns="http://www.w3.org/2000/svg">
<path d="M175.292 118.049L163.567 118.029L163.567 118.115L175.292 118.135L175.292 118.049Z" fill="#EBEBEB"/>
<path d="M133.276 118.91L130.2 118.904L130.2 118.99L133.276 118.995L133.276 118.91Z" fill="#EBEBEB"/>
<path d="M163.219 114.851L156.425 114.839L156.425 114.925L163.219 114.937L163.219 114.851Z" fill="#EBEBEB"/>
<path d="M49.8851 115.233L34.5947 115.207L34.5946 115.293L49.885 115.319L49.8851 115.233Z" fill="#EBEBEB"/>
<path d="M55.2781 115.243L53.0371 115.239L53.037 115.324L55.2779 115.328L55.2781 115.243Z" fill="#EBEBEB"/>
<path d="M95.7277 116.756L62.5625 116.7L62.5623 116.785L95.7276 116.842L95.7277 116.756Z" fill="#EBEBEB"/>
<path d="M99.9582 97.1362L31.6027 97.0196C31.0666 97.0187 30.5528 96.8118 30.1744 96.4444C29.7959 96.077 29.5839 95.5793 29.5848 95.0606L29.7543 2.10295C29.7599 1.5873 29.9758 1.09466 30.3551 0.732265C30.7343 0.369874 31.2462 0.16707 31.7793 0.168L100.135 0.284618C100.671 0.285533 101.185 0.492438 101.563 0.859817C101.942 1.2272 102.154 1.72495 102.153 2.24359L101.983 95.1841C101.982 95.7028 101.768 96.1998 101.389 96.5659C101.009 96.932 100.494 97.1371 99.9582 97.1362ZM31.7792 0.236495C31.2668 0.236526 30.7753 0.432986 30.4124 0.782847C30.0494 1.13271 29.8446 1.60745 29.8428 2.1031L29.6733 95.0608C29.6733 95.5564 29.8764 96.0319 30.2381 96.383C30.5998 96.7341 31.0905 96.9322 31.6029 96.934L99.9584 97.0506C100.471 97.0506 100.962 96.8541 101.325 96.5042C101.688 96.1544 101.893 95.6796 101.895 95.184L102.064 2.22632C102.064 1.73066 101.861 1.25522 101.499 0.904126C101.138 0.553028 100.647 0.354892 100.135 0.353113L31.7792 0.236495Z" fill="#EBEBEB"/>
<path d="M176.539 97.2676L108.176 97.1509C107.64 97.1491 107.127 96.9419 106.749 96.5747C106.37 96.2076 106.158 95.7103 106.158 95.192L106.328 2.2343C106.334 1.71893 106.55 1.2268 106.929 0.864603C107.308 0.502403 107.82 0.299311 108.353 0.299347L176.715 0.415978C177.247 0.418668 177.756 0.624009 178.133 0.987496C178.509 1.35098 178.722 1.84333 178.726 2.35782L178.556 95.3155C178.556 95.8329 178.343 96.3289 177.964 96.6948C177.586 97.0607 177.073 97.2667 176.539 97.2676ZM108.352 0.367842C107.84 0.367873 107.349 0.564333 106.986 0.914195C106.623 1.26406 106.418 1.7388 106.416 2.23445L106.247 95.1921C106.247 95.6878 106.45 96.1632 106.811 96.5143C107.173 96.8654 107.664 97.0635 108.176 97.0653L176.539 97.1819C177.051 97.1819 177.543 96.9855 177.905 96.6356C178.268 96.2857 178.473 95.811 178.475 95.3153L178.645 2.35768C178.645 1.86202 178.441 1.38658 178.08 1.03549C177.718 0.684388 177.227 0.486252 176.715 0.484473L108.352 0.367842Z" fill="#EBEBEB"/>
<path d="M193.04 112.57L16.0264 112.268L16.0262 112.354L193.04 112.656L193.04 112.57Z" fill="#EBEBEB"/>
<path d="M78.6524 53.2123L86.6144 53.2258L80.2706 18.0566L72.3086 18.043L78.6524 53.2123Z" fill="#FAFAFA"/>
<path d="M74.0186 53.2044L76.164 53.2081L69.8202 18.0388L67.6748 18.0352L74.0186 53.2044Z" fill="#FAFAFA"/>
<path d="M50.7173 53.7745L52.9229 53.7783L46.4038 17.6361L44.1982 17.6323L50.7173 53.7745Z" fill="#FAFAFA"/>
<path d="M55.1153 53.7819L59.2716 53.789L52.7526 17.6467L48.5928 17.6396L55.1153 53.7819Z" fill="#FAFAFA"/>
<path d="M66.3164 17.4873L92.3338 17.5317L92.2676 53.8339L66.2502 53.7895L66.3164 17.4873ZM90.2733 19.518L68.3697 19.4806L68.3107 51.817L90.2143 51.8543L90.2733 19.518Z" fill="#E6E6E6"/>
<path d="M39.2705 16.4453L93.3799 16.5376L93.3101 54.8468L39.2007 54.7544L39.2705 16.4453ZM91.3088 18.5273L41.3344 18.442L41.2718 52.7648L91.2427 52.85L91.3088 18.5273Z" fill="#F5F5F5"/>
<path d="M150.525 29.0566L150.551 14.772L131.366 14.7392L131.34 29.0238L150.525 29.0566Z" fill="#F5F5F5"/>
<path d="M149.05 27.955L149.072 15.8657L132.837 15.838L132.815 27.9273L149.05 27.955Z" fill="#EBEBEB"/>
<path d="M148.035 27.1957L148.055 16.6201L133.851 16.5959L133.832 27.1715L148.035 27.1957Z" fill="#FAFAFA"/>
<path d="M143.522 23.5822C145.147 23.585 146.466 22.313 146.469 20.7412C146.472 19.1695 145.157 17.893 143.532 17.8903C141.908 17.8875 140.588 19.1594 140.585 20.7312C140.582 22.303 141.897 23.5794 143.522 23.5822Z" fill="#F0F0F0"/>
<path d="M139.121 25.3351C140.745 25.3379 142.065 24.066 142.068 22.4942C142.071 20.9224 140.756 19.646 139.131 19.6432C137.506 19.6404 136.187 20.9124 136.184 22.4841C136.181 24.0559 137.496 25.3323 139.121 25.3351Z" fill="#F5F5F5"/>
<path d="M161.45 19.3036L152.663 19.2886L152.643 30.3299L161.43 30.3449L161.45 19.3036Z" fill="#E0E0E0"/>
<path d="M160.77 20.1528L153.335 20.1401L153.318 29.4828L160.752 29.4955L160.77 20.1528Z" fill="#F0F0F0"/>
<path d="M159.449 21.8046L154.648 21.7964L154.637 27.8308L159.438 27.839L159.449 21.8046Z" fill="#FAFAFA"/>
<path d="M124.651 28.2152C126.965 28.2191 128.847 25.5636 128.853 22.2839C128.859 19.0041 126.987 16.3422 124.672 16.3382C122.357 16.3343 120.476 18.9898 120.47 22.2695C120.464 25.5493 122.336 28.2112 124.651 28.2152Z" fill="#F5F5F5"/>
<path d="M124.652 26.5675C126.324 26.5704 127.683 24.6515 127.687 22.2815C127.691 19.9115 126.34 17.988 124.668 17.9851C122.996 17.9823 121.638 19.9012 121.633 22.2712C121.629 24.6411 122.981 26.5647 124.652 26.5675Z" fill="#EBEBEB"/>
<path d="M124.655 25.3101C125.838 25.3121 126.799 23.9552 126.802 22.2794C126.805 20.6036 125.849 19.2435 124.666 19.2414C123.483 19.2394 122.521 20.5963 122.518 22.2721C122.515 23.9479 123.472 25.3081 124.655 25.3101Z" fill="#FAFAFA"/>
<path d="M102.802 126.564C140.712 126.628 171.447 124.945 171.451 122.804C171.455 120.663 140.726 118.875 102.816 118.81C64.906 118.745 34.1707 120.429 34.1668 122.57C34.1629 124.711 64.8919 126.499 102.802 126.564Z" fill="#F5F5F5"/>
<path d="M156.949 122.56L101.802 122.466L101.126 120.667L156.952 120.762L156.949 122.56Z" fill="#263238"/>
<path opacity="0.2" d="M156.949 122.56L101.802 122.466L101.126 120.667L156.952 120.762L156.949 122.56Z" fill="white"/>
<path d="M168.477 122.58L156.95 122.56L156.954 120.762L169.157 120.783L168.477 122.58Z" fill="#263238"/>
<path d="M172.39 96.4904L161.713 96.4722L161.668 120.918L172.346 120.936L172.39 96.4904Z" fill="#C53F3F"/>
<path opacity="0.5" d="M172.39 96.4904L161.713 96.4722L161.668 120.918L172.346 120.936L172.39 96.4904Z" fill="white"/>
<path d="M162.436 96.4732L98.5869 96.3643L98.5423 120.81L162.391 120.919L162.436 96.4732Z" fill="#C53F3F"/>
<path opacity="0.7" d="M162.436 96.4732L98.5869 96.3643L98.5423 120.81L162.391 120.919L162.436 96.4732Z" fill="white"/>
<path opacity="0.8" d="M118.72 98.3717L118.641 98.9196C118.598 99.2038 118.209 99.4188 117.741 99.418L112.381 99.4089C111.914 99.4081 111.525 99.1917 111.487 98.9074L111.406 98.3593L100.881 98.3413L100.869 104.787L129.23 104.835L129.242 98.3897L118.72 98.3717Z" fill="white"/>
<path opacity="0.8" d="M118.708 105.518L118.629 106.069C118.586 106.35 118.196 106.569 117.729 106.568L112.369 106.559C111.902 106.558 111.513 106.338 111.474 106.057L111.394 105.506L100.869 105.488L100.857 111.933L129.218 111.982L129.23 105.536L118.708 105.518Z" fill="white"/>
<path opacity="0.8" d="M118.694 112.67L118.615 113.218C118.572 113.502 118.183 113.721 117.715 113.72L112.355 113.711C111.888 113.71 111.499 113.49 111.461 113.206L111.38 112.658L100.855 112.64L100.843 119.085L129.204 119.133L129.216 112.688L118.694 112.67Z" fill="white"/>
<path opacity="0.8" d="M149.202 98.4235L149.123 98.9713C149.08 99.2555 148.69 99.4706 148.223 99.4698L142.87 99.4607C142.403 99.4599 142.014 99.2434 141.975 98.9591L141.895 98.411L131.37 98.3931L131.358 104.838L159.719 104.887L159.731 98.4415L149.202 98.4235Z" fill="white"/>
<path opacity="0.8" d="M149.19 105.571L149.111 106.123C149.068 106.403 148.678 106.622 148.211 106.621L142.858 106.612C142.391 106.611 142.001 106.391 141.963 106.11L141.883 105.559L131.357 105.541L131.346 111.986L159.707 112.035L159.718 105.589L149.19 105.571Z" fill="white"/>
<path opacity="0.8" d="M149.177 112.722L149.098 113.27C149.055 113.554 148.665 113.772 148.198 113.772L142.845 113.762C142.377 113.762 141.988 113.542 141.95 113.257L141.869 112.709L131.344 112.691L131.332 119.137L159.694 119.185L159.705 112.74L149.177 112.722Z" fill="white"/>
<path d="M166.407 92.9318L112.595 92.84C112.244 92.8447 111.897 92.7773 111.575 92.6422C111.253 92.5072 110.964 92.3075 110.728 92.0566C110.492 91.8056 110.314 91.509 110.205 91.1863C110.096 90.8637 110.059 90.5223 110.097 90.1849L113.528 53.0494C113.605 52.331 113.951 51.6646 114.501 51.1764C115.051 50.6882 115.767 50.4121 116.514 50.4003L170.326 50.4921C170.677 50.4874 171.025 50.5548 171.347 50.6901C171.669 50.8253 171.958 51.0253 172.194 51.2766C172.431 51.528 172.609 51.8251 172.717 52.1481C172.826 52.4712 172.862 52.8129 172.824 53.1506L169.397 90.2895C169.318 91.0073 168.971 91.6725 168.42 92.1593C167.869 92.6462 167.153 92.921 166.407 92.9318Z" fill="#263238"/>
<path opacity="0.4" d="M166.407 92.9318L112.595 92.84C112.244 92.8447 111.897 92.7773 111.575 92.6422C111.253 92.5072 110.964 92.3075 110.728 92.0566C110.492 91.8056 110.314 91.509 110.205 91.1863C110.096 90.8637 110.059 90.5223 110.097 90.1849L113.528 53.0494C113.605 52.331 113.951 51.6646 114.501 51.1764C115.051 50.6882 115.767 50.4121 116.514 50.4003L170.326 50.4921C170.677 50.4874 171.025 50.5548 171.347 50.6901C171.669 50.8253 171.958 51.0253 172.194 51.2766C172.431 51.528 172.609 51.8251 172.717 52.1481C172.826 52.4712 172.862 52.8129 172.824 53.1506L169.397 90.2895C169.318 91.0073 168.971 91.6725 168.42 92.1593C167.869 92.6462 167.153 92.921 166.407 92.9318Z" fill="white"/>
<path d="M165.431 92.9298L111.619 92.838C111.268 92.8427 110.921 92.7753 110.599 92.6403C110.277 92.5052 109.988 92.3056 109.752 92.0546C109.516 91.8036 109.338 91.507 109.229 91.1844C109.12 90.8617 109.083 90.5204 109.121 90.183L112.552 53.0474C112.629 52.329 112.975 51.6626 113.525 51.1745C114.075 50.6863 114.791 50.4102 115.538 50.3984L169.35 50.4902C169.701 50.4854 170.049 50.5529 170.371 50.6881C170.693 50.8234 170.982 51.0233 171.218 51.2747C171.454 51.5261 171.633 51.8231 171.741 52.1462C171.85 52.4692 171.886 52.8109 171.848 53.1486L168.421 90.2876C168.342 91.0053 167.995 91.6705 167.444 92.1574C166.893 92.6442 166.177 92.919 165.431 92.9298Z" fill="#263238"/>
<path opacity="0.7" d="M165.431 92.9298L111.619 92.838C111.268 92.8427 110.921 92.7753 110.599 92.6403C110.277 92.5052 109.988 92.3056 109.752 92.0546C109.516 91.8036 109.338 91.507 109.229 91.1844C109.12 90.8617 109.083 90.5204 109.121 90.183L112.552 53.0474C112.629 52.329 112.975 51.6626 113.525 51.1745C114.075 50.6863 114.791 50.4102 115.538 50.3984L169.35 50.4902C169.701 50.4854 170.049 50.5529 170.371 50.6881C170.693 50.8234 170.982 51.0233 171.218 51.2747C171.454 51.5261 171.633 51.8231 171.741 52.1462C171.85 52.4692 171.886 52.8109 171.848 53.1486L168.421 90.2876C168.342 91.0053 167.995 91.6705 167.444 92.1574C166.893 92.6442 166.177 92.919 165.431 92.9298Z" fill="white"/>
<path d="M166.25 90.278L111.294 90.1843L114.718 53.0487L169.674 53.1425L166.25 90.278Z" fill="#C53F3F"/>
<path opacity="0.5" d="M166.25 90.278L111.294 90.1843L114.718 53.0487L169.674 53.1425L166.25 90.278Z" fill="white"/>
<path d="M105.729 92.1196L169.453 92.2283L169.452 92.8962C169.45 93.849 169.057 94.7621 168.36 95.4346C167.662 96.1072 166.717 96.4841 165.732 96.4824L109.434 96.3863C108.45 96.3847 107.506 96.0045 106.81 95.3296C106.115 94.6547 105.726 93.7403 105.727 92.7875L105.729 92.1196Z" fill="#263238"/>
<path opacity="0.2" d="M105.729 92.1196L169.453 92.2283L169.452 92.8962C169.45 93.849 169.057 94.7621 168.36 95.4346C167.662 96.1072 166.717 96.4841 165.732 96.4824L109.434 96.3863C108.45 96.3847 107.506 96.0045 106.81 95.3296C106.115 94.6547 105.726 93.7403 105.727 92.7875L105.729 92.1196Z" fill="white"/>
<path d="M101.283 92.1118L165.008 92.2205L165.006 92.8884C165.005 93.3601 164.909 93.8271 164.721 94.2627C164.534 94.6982 164.259 95.0938 163.914 95.4268C163.568 95.7598 163.159 96.0238 162.708 96.2035C162.257 96.3833 161.774 96.4754 161.286 96.4746L104.992 96.3785C104.007 96.3769 103.063 95.9967 102.368 95.3218C101.673 94.6469 101.283 93.7325 101.285 92.7797L101.286 92.1118L101.283 92.1118Z" fill="#263238"/>
<path opacity="0.5" d="M101.283 92.1118L165.008 92.2205L165.006 92.8884C165.005 93.3601 164.909 93.8271 164.721 94.2627C164.534 94.6982 164.259 95.0938 163.914 95.4268C163.568 95.7598 163.159 96.0238 162.708 96.2035C162.257 96.3833 161.774 96.4754 161.286 96.4746L104.992 96.3785C104.007 96.3769 103.063 95.9967 102.368 95.3218C101.673 94.6469 101.283 93.7325 101.285 92.7797L101.286 92.1118L101.283 92.1118Z" fill="white"/>
<path opacity="0.3" d="M127.441 92.1562C127.665 92.5338 127.988 92.8476 128.378 93.0659C128.767 93.2842 129.209 93.3994 129.659 93.3998L136.644 93.4117C137.094 93.4125 137.536 93.2987 137.926 93.0817C138.316 92.8647 138.64 92.5523 138.866 92.1757L127.441 92.1562Z" fill="black"/>
<path d="M163.224 83.2718L104.94 83.1724C104.721 83.1757 104.504 83.1338 104.302 83.0494C104.101 82.9651 103.921 82.8402 103.773 82.6831C103.626 82.526 103.515 82.3403 103.447 82.1384C103.38 81.9365 103.358 81.723 103.382 81.5121L106.918 43.1062C106.966 42.6582 107.181 42.2427 107.525 41.9384C107.868 41.6341 108.314 41.4622 108.78 41.4552L167.07 41.5546C167.289 41.5508 167.507 41.5922 167.708 41.6762C167.909 41.7602 168.09 41.8848 168.237 42.0416C168.385 42.1984 168.496 42.3839 168.563 42.5857C168.631 42.7874 168.653 43.0008 168.628 43.2115L165.085 81.6037C165.041 82.0544 164.827 82.4737 164.484 82.7813C164.14 83.089 163.692 83.2636 163.224 83.2718Z" fill="#C53F3F"/>
<path opacity="0.8" d="M163.224 83.2718L104.94 83.1724C104.721 83.1757 104.504 83.1338 104.302 83.0494C104.101 82.9651 103.921 82.8402 103.773 82.6831C103.626 82.526 103.515 82.3403 103.447 82.1384C103.38 81.9365 103.358 81.723 103.382 81.5121L106.918 43.1062C106.966 42.6582 107.181 42.2427 107.525 41.9384C107.868 41.6341 108.314 41.4622 108.78 41.4552L167.07 41.5546C167.289 41.5508 167.507 41.5922 167.708 41.6762C167.909 41.7602 168.09 41.8848 168.237 42.0416C168.385 42.1984 168.496 42.3839 168.563 42.5857C168.631 42.7874 168.653 43.0008 168.628 43.2115L165.085 81.6037C165.041 82.0544 164.827 82.4737 164.484 82.7813C164.14 83.089 163.692 83.2636 163.224 83.2718Z" fill="white"/>
<path d="M167.07 41.5685L108.78 41.4691C108.314 41.4761 107.868 41.648 107.525 41.9523C107.181 42.2566 106.966 42.6721 106.918 43.1201L106.738 45.0479L168.452 45.1532L168.629 43.2254C168.653 43.0147 168.631 42.8013 168.564 42.5996C168.496 42.3978 168.385 42.2123 168.237 42.0555C168.09 41.8987 167.909 41.7741 167.708 41.6901C167.507 41.6061 167.289 41.5647 167.07 41.5685Z" fill="#C53F3F"/>
<path opacity="0.3" d="M167.07 41.5685L108.78 41.4691C108.314 41.4761 107.868 41.648 107.525 41.9523C107.181 42.2566 106.966 42.6721 106.918 43.1201L106.738 45.0479L168.452 45.1532L168.629 43.2254C168.653 43.0147 168.631 42.8013 168.564 42.5996C168.496 42.3978 168.385 42.2123 168.237 42.0555C168.09 41.8987 167.909 41.7741 167.708 41.6901C167.507 41.6061 167.289 41.5647 167.07 41.5685Z" fill="white"/>
<path d="M110.412 43.2627C110.388 43.4492 110.295 43.621 110.15 43.7466C110.006 43.8722 109.819 43.9431 109.625 43.9463C109.534 43.9469 109.444 43.9292 109.361 43.8942C109.277 43.8593 109.202 43.8078 109.141 43.7432C109.079 43.6786 109.032 43.6023 109.003 43.5191C108.974 43.4359 108.963 43.3477 108.971 43.2602C108.994 43.0737 109.086 42.9015 109.23 42.7757C109.374 42.6499 109.56 42.5792 109.755 42.5766C109.846 42.5755 109.936 42.5928 110.02 42.6276C110.104 42.6623 110.179 42.7137 110.241 42.7784C110.303 42.843 110.35 42.9195 110.379 43.003C110.409 43.0864 110.42 43.1749 110.412 43.2627Z" fill="#C53F3F"/>
<path d="M112.915 43.2676C112.891 43.4539 112.799 43.6256 112.655 43.7513C112.511 43.8769 112.325 43.9479 112.131 43.9512C112.04 43.9524 111.95 43.935 111.866 43.9002C111.782 43.8655 111.707 43.8141 111.645 43.7495C111.583 43.6848 111.536 43.6083 111.506 43.5249C111.477 43.4414 111.466 43.353 111.474 43.2652C111.497 43.0789 111.589 42.9071 111.733 42.7815C111.877 42.6559 112.064 42.5849 112.258 42.5816C112.349 42.5799 112.439 42.5969 112.523 42.6315C112.607 42.666 112.683 42.7174 112.745 42.7822C112.807 42.8469 112.854 42.9237 112.884 43.0073C112.913 43.091 112.923 43.1797 112.915 43.2676Z" fill="#C53F3F"/>
<path d="M115.422 43.2715C115.397 43.458 115.305 43.6298 115.16 43.7554C115.015 43.881 114.829 43.9519 114.634 43.9551C114.544 43.9557 114.454 43.938 114.37 43.903C114.287 43.8681 114.212 43.8166 114.151 43.752C114.089 43.6874 114.042 43.6111 114.013 43.5279C113.984 43.4447 113.973 43.3565 113.981 43.269C114.003 43.0822 114.094 42.9096 114.239 42.7837C114.383 42.6578 114.57 42.5872 114.764 42.5854C114.855 42.5843 114.946 42.6016 115.03 42.6364C115.113 42.6711 115.189 42.7225 115.251 42.7872C115.313 42.8518 115.36 42.9283 115.389 43.0118C115.419 43.0952 115.43 43.1837 115.422 43.2715Z" fill="#C53F3F"/>
<path d="M131.777 49.2244L130.715 49.2226L130.466 49.6982L129.921 49.6973L131.154 47.4699L131.681 47.4708L132.506 49.7017L131.946 49.7007L131.777 49.2244ZM131.643 48.8303L131.358 47.9771L130.914 48.8291L131.643 48.8303Z" fill="#263238"/>
<path d="M134.206 49.705L133.817 49.0845L133.325 49.0836L133.267 49.7034L132.733 49.7025L132.939 47.4734L133.937 47.4751C134.117 47.4711 134.296 47.5053 134.461 47.5753C134.596 47.6342 134.708 47.7326 134.782 47.8566C134.854 47.9881 134.882 48.1375 134.863 48.2849C134.854 48.44 134.797 48.5889 134.699 48.7127C134.603 48.8363 134.473 48.932 134.324 48.9895L134.775 49.706L134.206 49.705ZM134.23 47.9927C134.128 47.9187 134.003 47.8832 133.876 47.8928L133.441 47.892L133.368 48.6693L133.804 48.6701C133.937 48.6781 134.07 48.6421 134.179 48.568C134.224 48.5327 134.26 48.489 134.286 48.4395C134.313 48.3901 134.328 48.336 134.332 48.2805C134.339 48.2287 134.333 48.1762 134.315 48.1269C134.297 48.0776 134.268 48.0329 134.23 47.9961L134.23 47.9927Z" fill="#263238"/>
<path d="M135.769 47.8991L135.03 47.8978L135.069 47.4766L137.08 47.4801L137.04 47.9012L136.3 47.9L136.134 49.708L135.6 49.707L135.769 47.8991Z" fill="#263238"/>
<path d="M137.366 47.4803L137.897 47.4812L137.692 49.7104L137.16 49.7095L137.366 47.4803Z" fill="#263238"/>
<path d="M138.715 49.6035C138.539 49.5089 138.396 49.3655 138.305 49.1918C138.212 49.0068 138.175 48.8003 138.197 48.5957C138.215 48.3829 138.291 48.1785 138.417 48.0036C138.54 47.8291 138.708 47.6879 138.903 47.5935C139.105 47.4942 139.328 47.444 139.555 47.4473C139.738 47.4448 139.92 47.479 140.089 47.5475C140.239 47.6133 140.369 47.7149 140.467 47.8427L140.113 48.1469C140.048 48.064 139.964 47.9972 139.868 47.9518C139.771 47.9064 139.665 47.8837 139.557 47.8857C139.42 47.8835 139.285 47.9151 139.164 47.9775C139.047 48.0348 138.949 48.1223 138.881 48.2304C138.805 48.3394 138.761 48.4658 138.752 48.5967C138.736 48.7229 138.757 48.851 138.812 48.9666C138.861 49.0734 138.944 49.1623 139.049 49.2205C139.163 49.2836 139.292 49.3158 139.424 49.3136C139.538 49.3132 139.651 49.2896 139.756 49.2444C139.86 49.1991 139.953 49.1332 140.03 49.0509L140.341 49.3562C140.222 49.4851 140.074 49.5857 139.908 49.65C139.732 49.7198 139.543 49.7544 139.352 49.7518C139.13 49.7586 138.91 49.7073 138.715 49.6035Z" fill="#263238"/>
<path d="M140.861 47.4867L141.392 47.4876L141.226 49.2956L142.384 49.2975L142.344 49.7187L140.655 49.7158L140.861 47.4867Z" fill="#263238"/>
<path d="M144.469 49.3075L144.43 49.7218L142.66 49.7188L142.865 47.4896L144.607 47.4926L144.567 47.9069L143.357 47.9048L143.31 48.3876L144.372 48.3895L144.336 48.7901L143.274 48.7883L143.227 49.3053L144.469 49.3075Z" fill="#263238"/>
<path d="M129.486 72.1115L141.927 72.1327C142.323 72.1334 142.378 71.5376 141.981 71.5369L129.541 71.5157C129.144 71.515 129.09 72.1108 129.486 72.1115Z" fill="#263238"/>
<path d="M129.26 74.5744L139.881 74.5925C140.277 74.5932 140.335 73.9974 139.935 73.9967L129.314 73.9786C128.914 73.9779 128.86 74.5737 129.257 74.5744L129.26 74.5744Z" fill="#263238"/>
<path d="M129.026 77.0495L140.946 77.0698C141.342 77.0705 141.397 76.4747 141 76.474L129.091 76.4537C128.691 76.453 128.636 77.0488 129.033 77.0495L129.026 77.0495Z" fill="#263238"/>
<path d="M128.804 79.4977L139.942 79.5167C140.338 79.5174 140.396 78.9182 139.996 78.9175L128.862 78.8985C128.462 78.8978 128.407 79.4971 128.804 79.4977Z" fill="#263238"/>
<path d="M111.881 72.0817L124.13 72.1026C124.527 72.1033 124.585 71.5075 124.185 71.5068L111.939 71.4859C111.539 71.4852 111.485 72.081 111.881 72.0817Z" fill="#263238"/>
<path d="M111.655 74.5431L123.904 74.564C124.304 74.5647 124.359 73.9689 123.962 73.9682L111.713 73.9473C111.313 73.9467 111.258 74.5425 111.655 74.5431Z" fill="#263238"/>
<path d="M111.43 77.0192L125.237 77.0428C125.633 77.0435 125.687 76.4476 125.291 76.447L111.484 76.4234C111.087 76.4227 111.03 77.0185 111.43 77.0192Z" fill="#263238"/>
<path d="M111.203 79.468L122.426 79.4871C122.826 79.4878 122.88 78.8886 122.484 78.8879L111.257 78.8687C110.861 78.868 110.803 79.4673 111.203 79.468Z" fill="#263238"/>
<path d="M112.337 67.1579L124.586 67.1788C124.982 67.1794 125.04 66.5836 124.64 66.583L112.405 66.5621C112.008 66.5614 111.954 67.1572 112.351 67.1579L112.337 67.1579Z" fill="#263238"/>
<path d="M112.108 69.6193L125.398 69.642C125.795 69.6427 125.853 69.0469 125.456 69.0462L112.166 69.0235C111.766 69.0228 111.712 69.6186 112.108 69.6193Z" fill="#263238"/>
<path d="M145.719 72.1388L158.418 72.1605C158.818 72.1612 158.872 71.5654 158.476 71.5647L145.777 71.543C145.377 71.5424 145.322 72.1382 145.719 72.1388Z" fill="#263238"/>
<path d="M145.492 74.6017L156.892 74.6212C157.289 74.6219 157.343 74.0261 156.946 74.0254L145.55 74.0059C145.15 74.0052 145.096 74.6011 145.492 74.6017Z" fill="#263238"/>
<path d="M145.268 77.0769L157.443 77.0976C157.843 77.0983 157.897 76.5025 157.501 76.5018L145.312 76.481C144.915 76.4803 144.857 77.0762 145.257 77.0768L145.268 77.0769Z" fill="#263238"/>
<path d="M145.04 79.5251L156.695 79.545C157.095 79.5457 157.149 78.9464 156.752 78.9457L145.094 78.9259C144.698 78.9252 144.64 79.5244 145.04 79.5251Z" fill="#263238"/>
<path d="M113.593 53.55L127.4 53.5736C127.931 53.5745 128.004 52.7767 127.473 52.7758L113.666 52.7522C113.138 52.7513 113.062 53.5491 113.593 53.55Z" fill="#263238"/>
<path d="M113.366 56.011L125.877 56.0323C126.408 56.0332 126.484 55.2354 125.953 55.2345L113.438 55.2131C112.911 55.2122 112.835 56.0101 113.366 56.011Z" fill="#263238"/>
<path d="M113.128 58.4734L125.908 58.4952C126.439 58.4961 126.511 57.6982 125.98 57.6973L113.211 57.6755C112.683 57.6746 112.607 58.4725 113.138 58.4734L113.128 58.4734Z" fill="#263238"/>
<path d="M112.91 60.9255L123.598 60.9438C124.129 60.9447 124.201 60.1468 123.67 60.1459L112.986 60.1277C112.455 60.1268 112.379 60.9246 112.91 60.9255Z" fill="#263238"/>
<g opacity="0.2">
<path d="M113.595 53.5496L127.402 53.5731C127.933 53.574 128.005 52.7762 127.474 52.7753L113.667 52.7517C113.14 52.7508 113.064 53.5487 113.595 53.5496Z" fill="white"/>
<path d="M113.367 56.0115L125.878 56.0328C126.409 56.0337 126.485 55.2359 125.954 55.235L113.439 55.2136C112.912 55.2127 112.836 56.0106 113.367 56.0115Z" fill="white"/>
<path d="M113.128 58.4739L125.909 58.4957C126.44 58.4966 126.512 57.6987 125.981 57.6978L113.211 57.676C112.684 57.6751 112.608 58.473 113.139 58.4739L113.128 58.4739Z" fill="white"/>
<path d="M112.911 60.9255L123.599 60.9438C124.13 60.9447 124.202 60.1468 123.671 60.1459L112.987 60.1277C112.456 60.1268 112.38 60.9246 112.911 60.9255Z" fill="white"/>
</g>
<g opacity="0.2">
<path d="M129.487 72.1115L141.928 72.1327C142.324 72.1334 142.379 71.5376 141.982 71.5369L129.542 71.5157C129.145 71.515 129.091 72.1108 129.487 72.1115Z" fill="white"/>
</g>
<g opacity="0.2">
<path d="M129.259 74.5739L139.88 74.592C140.276 74.5927 140.334 73.9969 139.934 73.9962L129.313 73.9781C128.913 73.9774 128.859 74.5732 129.256 74.5739L129.259 74.5739Z" fill="white"/>
</g>
<g opacity="0.2">
<path d="M129.024 77.05L140.944 77.0703C141.341 77.071 141.395 76.4752 140.999 76.4745L129.089 76.4542C128.689 76.4535 128.635 77.0493 129.031 77.05L129.024 77.05Z" fill="white"/>
</g>
<g opacity="0.2">
<path d="M128.805 79.4977L139.943 79.5167C140.339 79.5174 140.397 78.9182 139.997 78.9175L128.863 78.8985C128.463 78.8978 128.408 79.4971 128.805 79.4977Z" fill="white"/>
</g>
<g opacity="0.2">
<path d="M111.882 72.0817L124.131 72.1026C124.528 72.1033 124.586 71.5075 124.186 71.5068L111.94 71.4859C111.54 71.4852 111.486 72.081 111.882 72.0817Z" fill="white"/>
</g>
<g opacity="0.2">
<path d="M111.654 74.5436L123.903 74.5645C124.303 74.5652 124.358 73.9694 123.961 73.9687L111.712 73.9478C111.312 73.9471 111.258 74.543 111.654 74.5436Z" fill="white"/>
</g>
<g opacity="0.2">
<path d="M111.43 77.0192L125.237 77.0428C125.634 77.0435 125.688 76.4476 125.291 76.447L111.484 76.4234C111.088 76.4227 111.03 77.0185 111.43 77.0192Z" fill="white"/>
</g>
<g opacity="0.2">
<path d="M111.202 79.4675L122.425 79.4866C122.825 79.4873 122.879 78.8881 122.483 78.8874L111.256 78.8682C110.86 78.8676 110.802 79.4668 111.202 79.4675Z" fill="white"/>
</g>
<g opacity="0.2">
<path d="M112.336 67.1574L124.585 67.1783C124.981 67.179 125.039 66.5831 124.639 66.5825L112.404 66.5616C112.007 66.5609 111.953 67.1567 112.35 67.1574L112.336 67.1574Z" fill="white"/>
</g>
<g opacity="0.2">
<path d="M112.109 69.6188L125.399 69.6415C125.796 69.6422 125.853 69.0464 125.457 69.0457L112.167 69.023C111.767 69.0223 111.713 69.6182 112.109 69.6188Z" fill="white"/>
</g>
<g opacity="0.2">
<path d="M145.72 72.1384L158.419 72.16C158.819 72.1607 158.873 71.5649 158.477 71.5642L145.778 71.5426C145.378 71.5419 145.323 72.1377 145.72 72.1384Z" fill="white"/>
</g>
<g opacity="0.2">
<path d="M145.492 74.6017L156.892 74.6212C157.289 74.6219 157.343 74.0261 156.946 74.0254L145.55 74.0059C145.15 74.0052 145.096 74.6011 145.492 74.6017Z" fill="white"/>
</g>
<g opacity="0.2">
<path d="M145.267 77.0769L157.442 77.0976C157.842 77.0983 157.896 76.5025 157.5 76.5018L145.311 76.481C144.914 76.4803 144.856 77.0762 145.256 77.0768L145.267 77.0769Z" fill="white"/>
</g>
<g opacity="0.2">
<path d="M145.04 79.5251L156.695 79.545C157.095 79.5457 157.149 78.9464 156.752 78.9457L145.094 78.9259C144.698 78.9252 144.64 79.5244 145.04 79.5251Z" fill="white"/>
</g>
<path opacity="0.5" d="M129.468 69.351L158.675 69.4008L160.264 52.1667L131.06 52.1169L129.468 69.351Z" fill="white"/>
<path d="M139.562 57.72L131.086 69.3531L145.888 69.3784L139.562 57.72Z" fill="#C53F3F"/>
<path opacity="0.2" d="M139.562 57.72L131.086 69.3531L145.888 69.3784L139.562 57.72Z" fill="white"/>
<path d="M149.666 54.8647L139.1 69.3676L157.552 69.399L149.666 54.8647Z" fill="#C53F3F"/>
<path opacity="0.6" d="M149.666 54.8647L139.1 69.3676L157.552 69.399L149.666 54.8647Z" fill="white"/>
<path d="M146.09 55.6671C146.041 56.1384 145.814 56.5756 145.453 56.8958C145.092 57.2159 144.622 57.3966 144.133 57.4035C143.903 57.4069 143.674 57.3628 143.463 57.2742C143.252 57.1856 143.063 57.0546 142.908 56.8897C142.753 56.7249 142.636 56.53 142.566 56.3182C142.495 56.1063 142.471 55.8823 142.497 55.661C142.548 55.1906 142.775 54.7546 143.136 54.4353C143.496 54.116 143.965 53.9355 144.454 53.928C144.684 53.9241 144.912 53.9677 145.124 54.0559C145.335 54.1441 145.524 54.2749 145.679 54.4394C145.834 54.604 145.951 54.7987 146.021 55.0104C146.092 55.2221 146.116 55.4459 146.09 55.6671Z" fill="#C53F3F"/>
<path opacity="0.2" d="M146.09 55.6671C146.041 56.1384 145.814 56.5756 145.453 56.8958C145.092 57.2159 144.622 57.3966 144.133 57.4035C143.903 57.4069 143.674 57.3628 143.463 57.2742C143.252 57.1856 143.063 57.0546 142.908 56.8897C142.753 56.7249 142.636 56.53 142.566 56.3182C142.495 56.1063 142.471 55.8823 142.497 55.661C142.548 55.1906 142.775 54.7546 143.136 54.4353C143.496 54.116 143.965 53.9355 144.454 53.928C144.684 53.9241 144.912 53.9677 145.124 54.0559C145.335 54.1441 145.524 54.2749 145.679 54.4394C145.834 54.604 145.951 54.7987 146.021 55.0104C146.092 55.2221 146.116 55.4459 146.09 55.6671Z" fill="white"/>
<path d="M145.775 86.9237L121.701 86.8827C121.475 86.8863 121.25 86.843 121.043 86.7557C120.836 86.6684 120.65 86.5391 120.499 86.3766C120.348 86.2141 120.234 86.0221 120.166 85.8135C120.098 85.605 120.076 85.3847 120.104 85.1676L120.277 83.2671C120.323 82.8049 120.543 82.3752 120.896 82.06C121.248 81.7447 121.708 81.5661 122.188 81.558L146.262 81.5991C146.488 81.5955 146.713 81.6388 146.92 81.7261C147.127 81.8134 147.313 81.9426 147.464 82.1051C147.615 82.2677 147.729 82.4597 147.797 82.6682C147.865 82.8768 147.887 83.097 147.859 83.3142L147.682 85.2146C147.636 85.6763 147.417 86.1055 147.065 86.4207C146.713 86.7358 146.254 86.9148 145.775 86.9237Z" fill="#C53F3F"/>
<g opacity="0.8">
<path d="M128.221 83.2291C128.357 83.2864 128.47 83.3852 128.543 83.5104C128.617 83.6409 128.645 83.7913 128.623 83.9387C128.613 84.0931 128.557 84.2414 128.463 84.3665C128.368 84.4912 128.239 84.5882 128.091 84.6467C127.919 84.7147 127.735 84.7482 127.549 84.7451L127.085 84.7443L127.028 85.3572L126.493 85.3563L126.699 83.1272L127.697 83.1289C127.877 83.1249 128.056 83.1591 128.221 83.2291ZM127.95 84.2389C127.995 84.2042 128.032 84.1606 128.058 84.1111C128.085 84.0615 128.1 84.0071 128.103 83.9515C128.11 83.8994 128.105 83.8464 128.088 83.7964C128.071 83.7465 128.042 83.7011 128.004 83.6636C127.902 83.5911 127.777 83.5557 127.65 83.5637L127.215 83.563L127.143 84.3369L127.578 84.3376C127.71 84.3448 127.841 84.3101 127.95 84.2389Z" fill="white"/>
<path d="M129.138 85.1352C129.05 85.031 128.986 84.9098 128.951 84.7797C128.916 84.6497 128.91 84.5138 128.934 84.3814L129.049 83.1316L129.58 83.1325L129.468 84.3618C129.432 84.7624 129.584 84.9613 129.927 84.9619C130 84.9658 130.072 84.955 130.14 84.9304C130.207 84.9057 130.269 84.8677 130.321 84.8187C130.431 84.691 130.493 84.5301 130.495 84.3635L130.61 83.1342L131.138 83.1351L131.022 84.385C131.008 84.6706 130.88 84.94 130.667 85.1378C130.447 85.3208 130.163 85.4148 129.873 85.4002C129.738 85.4087 129.603 85.3895 129.476 85.3438C129.349 85.2982 129.234 85.2271 129.138 85.1352Z" fill="white"/>
<path d="M133.551 84.4132C133.617 84.5153 133.644 84.6364 133.628 84.7558C133.622 84.8465 133.594 84.9345 133.546 85.0125C133.498 85.0904 133.431 85.1561 133.351 85.204C133.136 85.3218 132.889 85.3762 132.643 85.3603L131.45 85.3583L131.655 83.1291L132.785 83.131C133.007 83.1151 133.229 83.1709 133.415 83.2897C133.483 83.3366 133.536 83.4008 133.569 83.4751C133.602 83.5495 133.613 83.6311 133.601 83.7112C133.596 83.8161 133.559 83.9171 133.495 84.0021C133.432 84.0884 133.348 84.1578 133.25 84.2038C133.373 84.2364 133.48 84.3108 133.551 84.4132ZM132.157 83.5272L132.11 84.0511L132.641 84.052C132.748 84.0578 132.853 84.0343 132.946 83.9841C132.981 83.9633 133.01 83.9348 133.031 83.9008C133.052 83.8669 133.064 83.8286 133.067 83.7891C133.073 83.7521 133.069 83.7141 133.054 83.6796C133.039 83.645 133.014 83.6152 132.982 83.5937C132.893 83.5435 132.791 83.5206 132.688 83.5281L132.157 83.5272ZM132.969 84.8985C133.007 84.8776 133.038 84.8478 133.061 84.8119C133.083 84.776 133.095 84.7352 133.097 84.6932C133.097 84.5083 132.981 84.4156 132.697 84.4152L132.074 84.4141L132.024 84.9654L132.647 84.9665C132.757 84.977 132.869 84.9582 132.969 84.9122L132.969 84.8985Z" fill="white"/>
<path d="M134.183 83.14L134.718 83.1409L134.552 84.9489L135.706 84.9509L135.666 85.372L133.967 85.3691L134.183 83.14Z" fill="white"/>
<path d="M136.173 83.1434L136.707 83.1443L136.501 85.3735L135.967 85.3726L136.173 83.1434Z" fill="white"/>
<path d="M137.281 85.3404C137.138 85.3055 137.005 85.2423 136.888 85.1548L137.105 84.7681C137.207 84.841 137.321 84.8979 137.441 84.9365C137.571 84.9777 137.708 84.9988 137.845 84.9989C137.967 85.0095 138.089 84.9871 138.199 84.9344C138.233 84.9188 138.263 84.895 138.286 84.865C138.308 84.8351 138.322 84.8001 138.326 84.7634C138.329 84.7386 138.326 84.7136 138.317 84.6904C138.307 84.6672 138.293 84.6464 138.274 84.6297C138.227 84.5915 138.173 84.5624 138.114 84.5438C138.027 84.5164 137.939 84.4934 137.849 84.4749C137.708 84.4416 137.568 84.4014 137.432 84.3543C137.324 84.3139 137.23 84.2463 137.159 84.1586C137.089 84.0582 137.058 83.9367 137.071 83.816C137.086 83.6915 137.135 83.5731 137.214 83.4738C137.306 83.3607 137.429 83.2744 137.568 83.2244C137.742 83.1594 137.927 83.1283 138.113 83.1328C138.257 83.1328 138.399 83.1503 138.538 83.1849C138.664 83.215 138.783 83.2649 138.892 83.3328L138.689 83.7229C138.502 83.6103 138.287 83.5495 138.067 83.5471C137.95 83.5402 137.834 83.5637 137.73 83.6151C137.696 83.6338 137.666 83.6604 137.645 83.6925C137.623 83.7247 137.61 83.7615 137.606 83.7998C137.601 83.8357 137.609 83.8722 137.628 83.9033C137.647 83.9344 137.677 83.9583 137.712 83.9712C137.825 84.0203 137.944 84.0572 138.066 84.0814C138.208 84.1147 138.349 84.155 138.487 84.202C138.592 84.2424 138.685 84.3086 138.756 84.3942C138.829 84.4932 138.861 84.6159 138.843 84.7368C138.833 84.8622 138.783 84.9815 138.701 85.0791C138.608 85.1916 138.486 85.2778 138.347 85.3285C138.173 85.3934 137.988 85.4245 137.801 85.42C137.625 85.4181 137.45 85.3913 137.281 85.3404Z" fill="white"/>
<path d="M141.47 83.1529L141.264 85.3821L140.729 85.3811L140.816 84.4669L139.754 84.4651L139.671 85.3793L139.136 85.3784L139.342 83.1493L139.877 83.1502L139.793 84.0302L140.856 84.032L140.935 83.152L141.47 83.1529Z" fill="white"/>
</g>
<path d="M45.405 94.8414L58.7766 94.8642L56.0413 76.6262C55.3523 72.0222 51.1567 68.354 46.5968 68.3462L43.1309 68.3403C38.5675 68.3325 35.2931 71.9982 35.7556 76.6019L36.799 86.8779L45.405 94.8414Z" fill="#C53F3F"/>
<path opacity="0.1" d="M45.405 94.8414L58.7766 94.8642L56.0413 76.6262C55.3523 72.0222 51.1567 68.354 46.5968 68.3462L43.1309 68.3403C38.5675 68.3325 35.2931 71.9982 35.7556 76.6019L36.799 86.8779L45.405 94.8414Z" fill="white"/>
<path d="M62.7174 94.8716L41.5254 94.8354L39.6964 76.5989C39.2375 71.9953 42.5083 68.3398 47.0753 68.3476L50.5376 68.3535C55.1046 68.3613 59.2966 72.0398 59.9857 76.6438L62.7174 94.8716Z" fill="#C53F3F"/>
<path opacity="0.3" d="M62.7174 94.8716L41.5254 94.8354L39.6964 76.5989C39.2375 71.9953 42.5083 68.3398 47.0753 68.3476L50.5376 68.3535C55.1046 68.3613 59.2966 72.0398 59.9857 76.6438L62.7174 94.8716Z" fill="white"/>
<path d="M59.3698 101.13C64.1209 101.107 68.8827 99.091 71.9161 95.5105C74.404 92.626 75.7862 88.9992 75.8292 85.2429C75.8318 83.7874 74.5032 82.3912 72.9595 82.4571L64.0345 82.4419C63.2763 82.4538 62.5525 82.7497 62.0154 83.2675C61.4782 83.7853 61.1697 84.4845 61.1547 85.2178C61.1542 85.5295 61.1536 85.8411 61.1176 86.1562C61.1173 86.3308 60.9886 87.0121 61.0529 86.7109C60.9373 87.3311 60.7825 87.9439 60.5893 88.5457C60.5146 88.7648 60.4292 88.9838 60.3438 89.1995C60.3937 89.0625 60.1555 89.5964 60.0844 89.7333C59.787 90.2879 59.4538 90.8238 59.0867 91.3378C59.0866 91.3617 59.0334 91.413 58.998 91.4643C58.9625 91.5156 58.8738 91.6182 58.8454 91.649C58.6503 91.8713 58.4516 92.0901 58.2423 92.3021C58.0331 92.5141 57.7636 92.7705 57.5118 92.9858L57.1573 93.2729L56.8701 93.4916C56.7106 93.5975 56.4306 93.7854 56.3703 93.8332C56.1151 93.9937 55.8564 94.1474 55.5906 94.2908C55.3248 94.4342 55.1335 94.5229 54.9032 94.6321C54.4292 94.3915 53.9517 94.1681 53.4884 93.8865C53.2303 93.7285 52.9899 93.5432 52.7388 93.3852C53.2727 93.7286 52.5832 93.2582 52.4348 93.1313C51.9295 92.6956 51.4572 92.2255 51.0212 91.7247L50.9047 91.5807C50.9753 91.663 50.6892 91.2995 50.6469 91.2378C50.4526 90.9669 50.269 90.6857 50.0996 90.3978C49.9302 90.1098 49.7467 89.8184 49.6162 89.5202C49.5492 89.3865 49.4893 89.2494 49.4258 89.1158C49.7221 89.7156 49.4259 89.0541 49.3694 88.9547C49.132 88.3172 48.945 87.6632 48.8101 86.9982C48.7821 86.8475 48.7646 86.6933 48.7295 86.546C48.877 87.2072 48.7296 86.4946 48.7298 86.3679C48.6951 85.9809 48.6817 85.5904 48.6788 85.2C48.6815 83.7445 47.3706 82.3484 45.8092 82.4142L36.863 82.3989C36.1042 82.4091 35.3794 82.7046 34.8419 83.2227C34.3044 83.7408 33.9964 84.441 33.9832 85.1749C34.0112 88.4544 35.0706 91.6479 37.0204 94.3307C38.9703 97.0136 41.7182 99.0586 44.8988 100.194C46.7258 100.853 48.6654 101.17 50.6147 101.128L59.3698 101.13Z" fill="#C53F3F"/>
<path opacity="0.4" d="M59.3698 101.13C64.1209 101.107 68.8827 99.091 71.9161 95.5105C74.404 92.626 75.7862 88.9992 75.8292 85.2429C75.8318 83.7874 74.5032 82.3912 72.9595 82.4571L64.0345 82.4419C63.2763 82.4538 62.5525 82.7497 62.0154 83.2675C61.4782 83.7853 61.1697 84.4845 61.1547 85.2178C61.1542 85.5295 61.1536 85.8411 61.1176 86.1562C61.1173 86.3308 60.9886 87.0121 61.0529 86.7109C60.9373 87.3311 60.7825 87.9439 60.5893 88.5457C60.5146 88.7648 60.4292 88.9838 60.3438 89.1995C60.3937 89.0625 60.1555 89.5964 60.0844 89.7333C59.787 90.2879 59.4538 90.8238 59.0867 91.3378C59.0866 91.3617 59.0334 91.413 58.998 91.4643C58.9625 91.5156 58.8738 91.6182 58.8454 91.649C58.6503 91.8713 58.4516 92.0901 58.2423 92.3021C58.0331 92.5141 57.7636 92.7705 57.5118 92.9858L57.1573 93.2729L56.8701 93.4916C56.7106 93.5975 56.4306 93.7854 56.3703 93.8332C56.1151 93.9937 55.8564 94.1474 55.5906 94.2908C55.3248 94.4342 55.1335 94.5229 54.9032 94.6321C54.4292 94.3915 53.9517 94.1681 53.4884 93.8865C53.2303 93.7285 52.9899 93.5432 52.7388 93.3852C53.2727 93.7286 52.5832 93.2582 52.4348 93.1313C51.9295 92.6956 51.4572 92.2255 51.0212 91.7247L50.9047 91.5807C50.9753 91.663 50.6892 91.2995 50.6469 91.2378C50.4526 90.9669 50.269 90.6857 50.0996 90.3978C49.9302 90.1098 49.7467 89.8184 49.6162 89.5202C49.5492 89.3865 49.4893 89.2494 49.4258 89.1158C49.7221 89.7156 49.4259 89.0541 49.3694 88.9547C49.132 88.3172 48.945 87.6632 48.8101 86.9982C48.7821 86.8475 48.7646 86.6933 48.7295 86.546C48.877 87.2072 48.7296 86.4946 48.7298 86.3679C48.6951 85.9809 48.6817 85.5904 48.6788 85.2C48.6815 83.7445 47.3706 82.3484 45.8092 82.4142L36.863 82.3989C36.1042 82.4091 35.3794 82.7046 34.8419 83.2227C34.3044 83.7408 33.9964 84.441 33.9832 85.1749C34.0112 88.4544 35.0706 91.6479 37.0204 94.3307C38.9703 97.0136 41.7182 99.0586 44.8988 100.194C46.7258 100.853 48.6654 101.17 50.6147 101.128L59.3698 101.13Z" fill="white"/>
<path d="M70.094 85.2262C70.0935 85.5378 70.0929 85.8495 70.0604 86.1645C70.0601 86.3597 69.8993 87.1917 70.0243 86.572C69.9035 87.2424 69.7379 87.9044 69.5286 88.5541C69.4325 88.8382 69.3258 89.1154 69.212 89.3926C69.4431 88.8245 69.1125 89.5774 69.0273 89.7348C68.73 90.2901 68.3955 90.8261 68.026 91.3393C67.9763 91.4111 67.6924 91.7942 67.9159 91.5035C68.1395 91.2127 67.845 91.5821 67.7882 91.6505C67.5895 91.8728 67.3909 92.0916 67.1816 92.3036C66.9724 92.5156 66.7028 92.772 66.4511 92.9873L66.0965 93.2744C66.0363 93.3256 65.5293 93.6981 65.8554 93.4692C66.1213 93.2813 65.4053 93.7629 65.3096 93.8107C65.0544 93.9712 64.7957 94.1249 64.5299 94.2683C64.2641 94.4117 63.9878 94.5414 63.7149 94.671C63.6334 94.712 63.1799 94.903 63.5307 94.7563C63.8814 94.6097 63.3075 94.8382 63.2331 94.862C62.6481 95.067 62.0493 95.2331 61.4408 95.3589C61.246 95.3963 60.3784 95.5215 61.0371 95.4473C60.6405 95.4946 60.2404 95.5247 59.8367 95.5377C59.1916 95.5544 58.546 95.5315 57.9039 95.4694C57.7516 95.4691 57.373 95.3554 57.957 95.4695C57.8048 95.4384 57.6455 95.4176 57.4933 95.3899C57.1394 95.3242 56.8068 95.2449 56.4671 95.1518C56.1274 95.0588 55.8726 94.9796 55.5825 94.8798C55.4375 94.8316 55.296 94.7697 55.1474 94.7249C54.7511 94.6044 55.5612 94.938 55.2004 94.7421C54.631 94.4398 54.0438 94.1853 53.4956 93.8454C53.2375 93.6874 52.9971 93.502 52.746 93.3441C53.28 93.6874 52.5905 93.2171 52.442 93.0901C51.9368 92.6545 51.4644 92.1844 51.0285 91.6836L50.7423 91.3406C51.1733 91.8619 50.7106 91.2755 50.6541 91.1966C50.4599 90.9257 50.2763 90.6446 50.1069 90.3566C49.9375 90.0686 49.7539 89.7772 49.6235 89.479C49.5564 89.3454 49.4965 89.2083 49.433 89.0746C49.7293 89.6744 49.4331 89.013 49.3767 88.9135C49.1392 88.2761 48.9522 87.622 48.8173 86.9571C48.7893 86.8063 48.7719 86.6522 48.7367 86.5049C48.8842 87.1661 48.7368 86.4535 48.7371 86.3268C48.7024 85.9397 48.6889 85.5493 48.6861 85.1588C48.6887 83.7033 47.3778 82.3072 45.8165 82.373C45.0581 82.3833 44.3336 82.6788 43.7966 83.197C43.2597 83.7153 42.9525 84.4154 42.9402 85.149C42.9576 88.4341 44.0105 91.6359 45.9584 94.3269C47.9062 97.0179 50.6564 99.0699 53.8416 100.209C60.0861 102.48 67.68 100.517 71.9056 95.5275C74.3934 92.6431 75.7756 89.0163 75.8186 85.2599C75.8212 83.8044 74.4926 82.4083 72.949 82.4741C72.1908 82.486 71.4669 82.782 70.9298 83.2998C70.3927 83.8176 70.0842 84.5167 70.0692 85.2501L70.094 85.2262Z" fill="#C53F3F"/>
<g opacity="0.6">
<path d="M70.095 85.2257C70.0944 85.5374 70.0939 85.849 70.0614 86.164C70.0611 86.3592 69.9002 87.1912 70.0253 86.5715C69.9045 87.2419 69.7389 87.9039 69.5296 88.5536C69.4335 88.8377 69.3267 89.1149 69.213 89.3921C69.4441 88.824 69.1135 89.5769 69.0282 89.7343C68.731 90.2896 68.3965 90.8256 68.027 91.3388C67.9773 91.4106 67.6933 91.7937 67.9169 91.503C68.1405 91.2123 67.846 91.5816 67.7892 91.65C67.5905 91.8723 67.3919 92.0911 67.1826 92.3031C66.9733 92.5151 66.7038 92.7715 66.4521 92.9868L66.0975 93.2739C66.0372 93.3252 65.5303 93.6976 65.8564 93.4687C66.1223 93.2808 65.4063 93.7624 65.3106 93.8102C65.0554 93.9708 64.7967 94.1244 64.5309 94.2678C64.2651 94.4112 63.9887 94.5409 63.7159 94.6705C63.6344 94.7115 63.1809 94.9025 63.5316 94.7558C63.8824 94.6092 63.3085 94.8377 63.2341 94.8615C62.6491 95.0665 62.0502 95.2326 61.4418 95.3585C61.247 95.3958 60.3794 95.521 61.038 95.4468C60.6414 95.4941 60.2413 95.5242 59.8377 95.5372C59.1926 95.5539 58.547 95.531 57.9049 95.4689C57.7526 95.4686 57.374 95.355 57.958 95.469C57.8058 95.4379 57.6465 95.4171 57.4943 95.3894C57.1404 95.3237 56.8078 95.2444 56.4681 95.1513C56.1284 95.0583 55.8736 94.9791 55.5835 94.8793C55.4384 94.8311 55.2969 94.7692 55.1483 94.7244C54.752 94.6039 55.5622 94.9375 55.2014 94.7416C54.632 94.4393 54.0447 94.1849 53.4966 93.8449C53.2385 93.6869 52.9981 93.5015 52.747 93.3436C53.281 93.687 52.5915 93.2166 52.443 93.0896C51.9378 92.654 51.4654 92.1839 51.0295 91.6831L50.7433 91.3401C51.1743 91.8614 50.7116 91.275 50.6551 91.1961C50.4609 90.9252 50.2773 90.6441 50.1079 90.3561C49.9385 90.0682 49.7549 89.7767 49.6244 89.4786C49.5574 89.3449 49.4975 89.2078 49.434 89.0741C49.7303 89.674 49.4341 89.0125 49.3777 88.9131C49.1402 88.2756 48.9532 87.6215 48.8183 86.9566C48.7903 86.8058 48.7729 86.6517 48.7377 86.5044C48.8852 87.1656 48.7378 86.453 48.738 86.3263C48.7033 85.9392 48.6899 85.5488 48.6871 85.1583C48.6897 83.7028 47.3788 82.3067 45.8174 82.3726C45.059 82.3828 44.3346 82.6783 43.7976 83.1965C43.2607 83.7148 42.9535 84.4149 42.9412 85.1485C42.9585 88.4336 44.0114 91.6354 45.9593 94.3264C47.9072 97.0174 50.6574 99.0695 53.8426 100.209C60.087 102.48 67.681 100.517 71.9065 95.527C74.3944 92.6426 75.7766 89.0158 75.8196 85.2594C75.8222 83.8039 74.4936 82.4078 72.9499 82.4736C72.1918 82.4855 71.4679 82.7815 70.9308 83.2993C70.3937 83.8171 70.0851 84.5162 70.0702 85.2496L70.095 85.2257Z" fill="white"/>
</g>
<path d="M55.7065 118.592L55.3776 118.403L55.4091 101.122C55.4086 100.923 55.3268 100.733 55.1818 100.593C55.0367 100.453 54.8402 100.374 54.6352 100.374L52.4544 100.37C52.2497 100.37 52.0532 100.448 51.9083 100.588C51.7633 100.728 51.6816 100.917 51.6812 101.115L51.6497 118.397L51.3166 118.584C49.1772 119.779 46.749 120.405 44.2788 120.398C43.7705 120.397 43.2826 120.591 42.9222 120.938C42.5618 121.285 42.3584 121.756 42.3566 122.247L64.6602 122.285C64.6607 122.042 64.6115 121.801 64.5154 121.575C64.4193 121.35 64.2783 121.146 64.1004 120.973C63.9225 120.801 63.7112 120.664 63.4786 120.571C63.246 120.477 62.9966 120.429 62.7448 120.429C60.2721 120.429 57.8437 119.795 55.7065 118.592Z" fill="#C53F3F"/>
<path opacity="0.2" d="M55.4058 102.971L55.4092 101.122C55.4086 100.924 55.3268 100.734 55.1818 100.594C55.0367 100.453 54.8402 100.375 54.6352 100.374L52.4544 100.37C52.2497 100.37 52.0533 100.448 51.9083 100.588C51.7633 100.728 51.6816 100.918 51.6813 101.116L51.6779 102.965L55.4058 102.971Z" fill="black"/>
<path d="M57.5574 52.6113C57.5574 52.6113 53.3969 56.8851 55.8586 60.1189L55.8004 59.0228C55.8004 59.0228 56.1508 60.9892 61.4606 61.3648C66.7703 61.7403 65.4063 58.3988 65.4063 58.3988C65.4063 58.3988 65.7586 59.3789 66.5514 59.4898C66.5514 59.4898 65.555 58.4128 65.9304 56.3825C66.3058 54.3523 67.8372 53.3035 65.4187 51.587C65.4187 51.587 65.6204 49.738 61.3499 50.2102C57.0795 50.6823 57.5574 52.6113 57.5574 52.6113Z" fill="#2E353A"/>
<path d="M68.0035 63.681C67.2495 63.5907 66.77 62.5487 66.8741 61.7475C66.9782 60.9463 67.7127 60.0366 68.4666 60.144C68.5435 60.1507 68.6181 60.1727 68.6857 60.2088C68.7533 60.2449 68.8124 60.2942 68.8592 60.3536C69.0782 60.628 69.0101 61.0765 68.9276 61.6483C68.9274 61.7579 68.8954 61.8743 68.8774 61.9907C68.8595 62.1071 68.8487 62.2269 68.8379 62.3331C68.7731 62.9049 68.7192 63.3603 68.4391 63.5687C68.3786 63.6158 68.3086 63.6502 68.2336 63.6695C68.1585 63.6888 68.0801 63.6928 68.0035 63.681ZM68.402 60.6371C68.1047 60.6023 67.4843 61.0602 67.3873 61.81C67.2904 62.5599 67.7708 63.1498 68.0681 63.1811C68.107 63.1812 68.1141 63.1812 68.1212 63.1812C68.2311 63.0958 68.2815 62.6438 68.3246 62.2808C68.3248 62.1678 68.3498 62.0514 68.3677 61.9384C68.3856 61.8254 68.4 61.6987 68.4179 61.596C68.4681 61.2365 68.5362 60.7846 68.4515 60.6783C68.448 60.6509 68.4409 60.644 68.402 60.6371Z" fill="#C53F3F"/>
<g opacity="0.5">
<path d="M68.0025 63.6805C67.2486 63.5902 66.769 62.5482 66.8731 61.747C66.9772 60.9458 67.7117 60.0361 68.4656 60.1435C68.5425 60.1502 68.6171 60.1722 68.6847 60.2083C68.7523 60.2444 68.8114 60.2937 68.8582 60.3531C69.0772 60.6275 69.0091 61.076 68.9267 61.6478C68.9265 61.7574 68.8944 61.8738 68.8765 61.9902C68.8586 62.1066 68.8477 62.2264 68.8369 62.3326C68.7721 62.9044 68.7182 63.3598 68.4381 63.5682C68.3777 63.6154 68.3076 63.6497 68.2326 63.669C68.1576 63.6884 68.0792 63.6923 68.0025 63.6805ZM68.401 60.6366C68.1037 60.6018 67.4833 61.0597 67.3863 61.8095C67.2894 62.5594 67.7698 63.1493 68.0671 63.1806C68.1061 63.1807 68.1131 63.1807 68.1202 63.1807C68.2301 63.0953 68.2805 62.6433 68.3237 62.2803C68.3239 62.1673 68.3489 62.0509 68.3668 61.9379C68.3847 61.8249 68.3991 61.6983 68.417 61.5955C68.4672 61.236 68.5353 60.7841 68.4505 60.6778C68.447 60.6504 68.4399 60.6435 68.401 60.6366Z" fill="black"/>
</g>
<path d="M73.9833 68.7524C73.9833 68.7524 64.4169 61.2975 63.6012 64.0325C62.5147 67.6883 73.4555 70.8269 73.4555 70.8269C73.4555 70.8269 74.4607 70.9964 73.9833 68.7524Z" fill="#C53F3F"/>
<path opacity="0.2" d="M72.9153 70.0383C73.8667 70.5536 73.7306 69.4883 73.3434 68.265C72.7212 67.7982 71.7029 67.0601 70.5537 66.2944C70.8068 67.2846 71.4794 69.2653 72.9153 70.0383Z" fill="black"/>
<path opacity="0.2" d="M65.5129 64.2031L64.9555 65.0583L64.9522 66.87C65.9201 67.6338 66.9806 68.2808 68.1101 68.7967C66.1366 67.7317 65.6399 64.4156 65.6399 64.4156L65.5129 64.2031Z" fill="black"/>
<path d="M54.0441 63.0879C53.9007 63.0848 53.7582 63.1099 53.6251 63.1615C53.492 63.2132 53.3711 63.2904 53.2697 63.3884C53.1683 63.4865 53.0885 63.6034 53.0351 63.7322C52.9816 63.8609 52.9557 63.9987 52.9588 64.1374C53.0384 67.0862 53.2111 75.2888 52.7769 78.5039C52.4431 80.9966 50.4189 88.2912 50.4189 88.2912L64.6726 82.1716C64.6726 82.1716 64.4756 77.5889 64.6837 76.079C64.8739 74.682 66.0717 72.0435 66.1911 70.643C66.2888 69.4856 65.7478 67.1833 65.7145 66.0222C65.7153 65.6044 65.7523 64.7312 65.7888 64.1456C65.7937 64.0692 65.7828 63.9926 65.7567 63.9203C65.7306 63.8481 65.6899 63.7815 65.6369 63.7247C65.584 63.6678 65.5198 63.6218 65.4482 63.5892C65.3766 63.5566 65.299 63.5382 65.2199 63.535L54.0441 63.0879Z" fill="#C53F3F"/>
<path d="M85.7995 108.534L86.7621 112.583L84.7292 113.032L83.5182 109.263L85.7995 108.534Z" fill="#B97964"/>
<path d="M87.3916 112.571C87.3798 112.571 87.3683 112.567 87.3583 112.561C87.3483 112.555 87.3402 112.547 87.335 112.536C87.3291 112.527 87.3259 112.516 87.3259 112.506C87.326 112.495 87.3291 112.484 87.3351 112.475C87.367 112.447 88.0727 111.825 88.4833 111.843C88.5591 111.847 88.6308 111.878 88.685 111.929C88.718 111.957 88.7412 111.994 88.7513 112.035C88.7614 112.076 88.7578 112.12 88.7412 112.159C88.6737 112.299 88.3867 112.415 88.0998 112.479C87.8669 112.529 87.6299 112.56 87.3916 112.571ZM87.5511 112.461C87.9937 112.418 88.5781 112.285 88.6527 112.121C88.6528 112.1 88.6706 112.063 88.614 112.008C88.5987 111.991 88.5796 111.977 88.5582 111.968C88.5367 111.959 88.5135 111.955 88.4902 111.956C88.454 111.949 88.4167 111.949 88.3804 111.956C88.0695 112.071 87.7843 112.242 87.5405 112.461L87.5511 112.461Z" fill="#C53F3F"/>
<path d="M87.3593 112.574C87.35 112.57 87.3419 112.564 87.3357 112.556C87.3295 112.548 87.3255 112.539 87.324 112.53C87.2722 112.206 87.3273 111.876 87.4815 111.585C87.5161 111.541 87.5593 111.505 87.6086 111.478C87.6579 111.451 87.7123 111.434 87.7685 111.428C87.9208 111.407 87.9844 111.472 88.0055 111.531C88.1148 111.774 87.6712 112.379 87.4195 112.557L87.3983 112.557C87.3935 112.563 87.3875 112.567 87.3808 112.57C87.374 112.573 87.3667 112.574 87.3593 112.574ZM87.7541 111.547C87.6846 111.56 87.6226 111.598 87.5805 111.653C87.4522 111.885 87.3999 112.149 87.4304 112.41C87.6822 112.181 87.9592 111.726 87.9063 111.572C87.9063 111.572 87.8852 111.524 87.786 111.537L87.7542 111.537L87.7541 111.547Z" fill="#C53F3F"/>
<path d="M87.0808 112.307L84.5485 112.861C84.5026 112.87 84.4615 112.895 84.4319 112.931C84.4022 112.966 84.3858 113.01 84.3853 113.055L84.3815 115.148C84.3813 115.239 84.4185 115.326 84.4847 115.39C84.551 115.455 84.641 115.491 84.7349 115.491L84.8092 115.491C85.7159 115.277 86.5165 115.052 87.6427 114.811C88.985 114.519 88.6801 114.748 90.2597 114.425C91.2124 114.232 91.1435 113.149 90.7292 113.186C88.8349 113.361 88.5172 112.867 87.6578 112.383C87.4811 112.291 87.2764 112.264 87.0808 112.307Z" fill="#263238"/>
<path opacity="0.1" d="M86.4916 111.446L85.7995 108.534L83.5182 109.263L84.437 112.127L86.4916 111.446Z" fill="black"/>
<path d="M50.5995 91.6411C49.348 88.7176 50.2381 83.9964 60.0798 82.2324C68.1578 80.7804 73.4069 81.3715 76.1708 81.9995C76.9089 82.1671 77.5946 82.5041 78.1698 82.9819C78.7451 83.4597 79.193 84.0644 79.4759 84.745C80.8577 88.0385 83.0779 93.5904 86.3583 109.935L83.857 110.959C83.857 110.959 81.1383 103.057 79.6927 99.8314C78.3881 96.9249 75.5819 92.331 74.7152 88.1C74.7152 88.1 70.8468 89.405 66.152 91.558C60.2667 94.2433 53.0812 97.4469 50.5995 91.6411Z" fill="#263238"/>
<path d="M83.3594 110.328L83.9657 111.757L86.7644 110.755L86.4768 109.268L83.3594 110.328Z" fill="#263238"/>
<path opacity="0.2" d="M83.3594 110.328L83.9657 111.757L86.7644 110.755L86.4768 109.268L83.3594 110.328Z" fill="white"/>
<path opacity="0.1" d="M74.6369 88.1176L74.7149 88.0903C75.1957 90.1595 75.9153 92.17 76.86 94.0838C77.3915 91.8724 78.0274 88.7432 77.5612 88.1363C76.8195 87.1761 74.6369 88.1313 74.6369 88.1313L74.6369 88.1176Z" fill="black"/>
<path d="M67.7544 115.921L67.1098 119.982L69.1242 119.985L70.2536 116.09L67.7544 115.921Z" fill="#B97964"/>
<path d="M69.6459 120.068C69.6345 120.067 69.6237 120.062 69.6149 120.055C69.6061 120.047 69.5997 120.038 69.5964 120.027C69.5948 120.016 69.5965 120.004 69.6016 119.994C69.6067 119.983 69.6147 119.975 69.6249 119.969C69.6603 119.948 70.4755 119.47 70.8753 119.563C70.9499 119.58 71.0147 119.624 71.0557 119.687C71.0812 119.721 71.095 119.763 71.0949 119.805C71.0948 119.848 71.0809 119.889 71.0552 119.923C70.8534 120.073 70.5999 120.143 70.3468 120.117C70.1122 120.12 69.8777 120.104 69.6459 120.068ZM69.8266 119.993C70.2691 120.035 70.8674 120.015 70.9739 119.865C70.9739 119.844 71.0023 119.81 70.9741 119.745C70.9628 119.725 70.9465 119.708 70.9268 119.695C70.9071 119.683 70.8845 119.675 70.861 119.673C70.8258 119.668 70.79 119.668 70.7548 119.673C70.4269 119.72 70.1116 119.829 69.8266 119.993Z" fill="#C53F3F"/>
<path d="M69.6141 120.069C69.6055 120.064 69.5986 120.057 69.5942 120.048C69.5898 120.04 69.5881 120.03 69.5894 120.021C69.605 119.692 69.7297 119.376 69.9451 119.121C70.0312 119.048 70.1431 119.012 70.2568 119.018C70.4126 119.019 70.462 119.104 70.4689 119.17C70.5251 119.426 69.9684 119.939 69.6885 120.065C69.6845 120.067 69.6803 120.068 69.6761 120.068C69.6718 120.068 69.6676 120.067 69.6637 120.065L69.6141 120.069ZM70.2106 119.125C70.139 119.126 70.07 119.151 70.0157 119.196C69.8452 119.4 69.7423 119.65 69.7206 119.911C70.0112 119.734 70.3731 119.334 70.3556 119.18C70.3556 119.18 70.3557 119.128 70.2425 119.121L70.2106 119.125Z" fill="#C53F3F"/>
<path d="M69.3945 119.756L66.7993 119.82C66.7519 119.821 66.7064 119.838 66.6703 119.868C66.6342 119.898 66.6097 119.939 66.6008 119.984L66.1828 122.038C66.1668 122.125 66.1862 122.215 66.2369 122.288C66.2875 122.362 66.3656 122.413 66.4547 122.432C66.4794 122.436 66.5044 122.436 66.5291 122.433C67.4638 122.393 68.2994 122.323 69.4571 122.297C70.8308 122.265 70.4871 122.432 72.1015 122.415C73.0751 122.416 73.2257 121.327 72.8116 121.286C70.9179 121.101 70.7065 120.556 69.9606 119.911C69.7973 119.795 69.5963 119.74 69.3945 119.756Z" fill="#263238"/>
<path opacity="0.1" d="M69.4397 118.904L70.2555 116.09L67.7564 115.922L67.2836 118.9L69.4397 118.904Z" fill="black"/>
<path d="M76.7147 89.4222C76.5067 89.0561 76.2084 88.7453 75.8462 88.5176C75.4841 88.2899 75.0693 88.1524 74.6389 88.1173C74.0792 88.3115 70.4658 89.5691 66.136 91.5481C63.2022 92.8924 59.9425 94.3629 57.106 94.7793L71.1304 94.0053C69.7462 97.8729 69.4024 103.914 68.9821 107.235C68.5727 110.457 67.3387 117.325 67.3387 117.325L70.0258 117.329C70.0258 117.329 77.8968 91.5408 76.7147 89.4222Z" fill="#263238"/>
<path opacity="0.4" d="M76.7147 89.4222C76.5067 89.0561 76.2084 88.7453 75.8462 88.5176C75.4841 88.2899 75.0693 88.1524 74.6389 88.1173C74.0792 88.3115 70.4658 89.5691 66.136 91.5481C63.2022 92.8924 59.9425 94.3629 57.106 94.7793L71.1304 94.0053C69.7462 97.8729 69.4024 103.914 68.9821 107.235C68.5727 110.457 67.3387 117.325 67.3387 117.325L70.0258 117.329C70.0258 117.329 77.8968 91.5408 76.7147 89.4222Z" fill="black"/>
<path d="M67.1204 116.91L66.9122 118.454L70.0809 118.412L70.4163 116.933L67.1204 116.91Z" fill="#263238"/>
<path opacity="0.2" d="M67.1204 116.91L66.9122 118.454L70.0809 118.412L70.4163 116.933L67.1204 116.91Z" fill="white"/>
<path d="M72.2697 63.1472L71.7017 62.1016L69.4958 60.2999C69.386 60.2114 69.2477 60.1629 69.1049 60.1626C68.962 60.1624 68.8235 60.2105 68.7134 60.2986L67.5966 61.1905C67.511 61.2582 67.4462 61.3472 67.4092 61.448C67.3722 61.5487 67.3644 61.6574 67.3867 61.7621L67.6218 62.8927C67.6497 63.0141 67.7168 63.1237 67.8134 63.2058C67.91 63.2878 68.0311 63.338 68.1591 63.3491C68.8671 63.4016 70.1911 63.445 70.5068 63.0688L70.8344 64.0043L72.2697 63.1472Z" fill="#B97964"/>
<path d="M65.8963 59.4443L67.3124 59.4467C67.5274 59.4471 67.7335 59.53 67.8852 59.6774C68.037 59.8247 68.1221 60.0243 68.1217 60.2323L68.1167 62.9721C68.1161 63.3209 67.9722 63.6552 67.7168 63.9014C67.4614 64.1475 67.1154 64.2855 66.7548 64.2849L66.4327 64.2843C66.0721 64.2837 65.7266 64.1446 65.4721 63.8975C65.2176 63.6505 65.075 63.3157 65.0756 62.9669L65.0806 60.2271C65.0808 60.1239 65.1021 60.0216 65.1432 59.9263C65.1843 59.831 65.2445 59.7445 65.3203 59.6718C65.3961 59.599 65.486 59.5415 65.5849 59.5024C65.6837 59.4634 65.7895 59.4436 65.8963 59.4443Z" fill="#C53F3F"/>
<path opacity="0.4" d="M65.8963 59.4443L67.3124 59.4467C67.5274 59.4471 67.7335 59.53 67.8852 59.6774C68.037 59.8247 68.1221 60.0243 68.1217 60.2323L68.1167 62.9721C68.1161 63.3209 67.9722 63.6552 67.7168 63.9014C67.4614 64.1475 67.1154 64.2855 66.7548 64.2849L66.4327 64.2843C66.0721 64.2837 65.7266 64.1446 65.4721 63.8975C65.2176 63.6505 65.075 63.3157 65.0756 62.9669L65.0806 60.2271C65.0808 60.1239 65.1021 60.0216 65.1432 59.9263C65.1843 59.831 65.2445 59.7445 65.3203 59.6718C65.3961 59.599 65.486 59.5415 65.5849 59.5024C65.6837 59.4634 65.7895 59.4436 65.8963 59.4443Z" fill="black"/>
<path d="M58.9395 58.3873C59.0997 59.8499 59.1515 62.4973 58.0241 63.3756C59.1158 64.3588 60.3353 65.2001 61.6519 65.8784C63.4242 64.6999 62.6405 63.4314 62.6405 63.4314C61.2251 63.0454 61.1709 61.7165 61.5446 60.6315L58.9395 58.3873Z" fill="#B97964"/>
<path opacity="0.1" d="M61.5437 60.6312L59.7764 59.1008L59.3795 59.2885C59.3795 59.2885 59.8256 61.2208 61.3645 61.8638C61.3453 61.4458 61.4061 61.0279 61.5437 60.6312Z" fill="black"/>
<path d="M58.0998 54.9032C58.1697 57.3178 58.1431 58.328 59.355 59.6178C61.1783 61.5388 64.2241 60.9309 64.9081 58.5485C65.5174 56.4056 65.308 52.823 62.9061 51.7812C62.3778 51.5502 61.7973 51.4535 61.2196 51.5002C60.6418 51.5469 60.086 51.7355 59.6047 52.0481C59.1234 52.3608 58.7325 52.7871 58.4692 53.2867C58.2058 53.7864 58.0787 54.3427 58.0998 54.9032Z" fill="#B97964"/>
<path d="M60.3085 50.5879C59.7197 51.1896 60.4568 52.7218 62.69 53.092C64.3712 53.3757 66.0417 55.5704 66.3213 53.6667C66.5865 51.9411 62.6104 50.1843 60.3085 50.5879Z" fill="#2E353A"/>
<path d="M61.3912 51.3716C62.3344 52.4829 61.1955 53.8645 60.4757 54.4523C59.756 55.0402 58.7427 55.4768 59.1512 56.6728C59.5597 57.8687 59.3313 60.8033 57.3434 59.8307C55.3556 58.8581 56.2716 55.476 57.2619 54.0462C58.2523 52.6163 60.2643 50.0512 61.3912 51.3716Z" fill="#2E353A"/>
<path d="M63.5167 56.0933C63.6809 56.5476 63.9088 56.9778 64.1941 57.3719C64.0885 57.4398 63.9688 57.4847 63.8435 57.5034C63.7181 57.5221 63.5901 57.5142 63.4682 57.4803L63.5167 56.0933Z" fill="#A24E3F"/>
<path d="M60.9558 54.6993C60.9392 54.6962 60.9243 54.6877 60.9134 54.6753C60.9041 54.6666 60.8967 54.6563 60.8916 54.6448C60.8866 54.6333 60.884 54.6209 60.884 54.6085C60.884 54.596 60.8867 54.5836 60.8917 54.5722C60.8968 54.5607 60.9043 54.5503 60.9136 54.5417C61.041 54.4113 61.1988 54.3124 61.3738 54.2531C61.5489 54.1938 61.736 54.1759 61.9197 54.201C61.9448 54.2067 61.9667 54.2218 61.9805 54.2429C61.9944 54.2641 61.9991 54.2896 61.9938 54.3141C61.9886 54.3384 61.9739 54.3598 61.9527 54.3738C61.9316 54.3878 61.9057 54.3934 61.8804 54.3893C61.7283 54.3719 61.5742 54.3898 61.4307 54.4413C61.2872 54.4929 61.1584 54.5767 61.0549 54.6858C61.0413 54.6967 61.0248 54.7037 61.0073 54.7061C60.9898 54.7085 60.972 54.7062 60.9558 54.6993Z" fill="#2E353A"/>
<path d="M65.2498 54.8778C65.2345 54.8719 65.2202 54.8638 65.2074 54.8538C65.0972 54.7511 64.9635 54.6751 64.8171 54.632C64.6707 54.5889 64.5159 54.5799 64.3653 54.6058C64.3529 54.6094 64.34 54.6105 64.3272 54.6092C64.3144 54.6078 64.302 54.604 64.2908 54.5979C64.2795 54.5918 64.2697 54.5836 64.2618 54.5737C64.254 54.5638 64.2482 54.5525 64.245 54.5405C64.2386 54.516 64.2425 54.49 64.2558 54.4682C64.2691 54.4464 64.2907 54.4306 64.316 54.4242C64.4988 54.3901 64.6874 54.3989 64.8659 54.4499C65.0445 54.5008 65.2078 54.5924 65.3422 54.717C65.3515 54.7257 65.3589 54.736 65.3639 54.7475C65.369 54.759 65.3716 54.7714 65.3715 54.7838C65.3715 54.7963 65.3689 54.8087 65.3638 54.8201C65.3587 54.8316 65.3513 54.842 65.3419 54.8506C65.3297 54.8647 65.3135 54.8751 65.2952 54.8805C65.277 54.886 65.2576 54.8862 65.2392 54.8812L65.2498 54.8778Z" fill="#2E353A"/>
<path d="M62.097 55.7246C62.0967 55.9163 62.192 56.0672 62.3265 56.0845C62.461 56.1019 62.571 55.9377 62.5749 55.7425C62.5788 55.5473 62.48 55.3999 62.349 55.3791C62.2181 55.3583 62.1045 55.5259 62.097 55.7246Z" fill="#2E353A"/>
<path d="M64.3881 55.8C64.3877 55.9952 64.483 56.1426 64.614 56.1634C64.745 56.1841 64.8586 56.0131 64.866 55.8213C64.8734 55.6295 64.771 55.4787 64.64 55.4785C64.509 55.4782 64.3955 55.6013 64.3881 55.8Z" fill="#2E353A"/>
<path d="M64.5838 55.4626L65.0761 55.3436C65.0761 55.3436 64.8099 55.7062 64.5838 55.4626Z" fill="#2E353A"/>
<path d="M62.2937 55.3855L62.7825 55.2665C62.7825 55.2665 62.5092 55.6256 62.2937 55.3855Z" fill="#2E353A"/>
<path d="M57.2835 63.1862C57.1162 63.0787 56.92 63.0211 56.7191 63.0208C56.5183 63.0205 56.3218 63.0773 56.1542 63.1842C56.1542 63.1842 55.6379 62.8751 55.4002 63.1418C55.4002 63.1418 58.7627 69.3772 58.2664 73.6299C57.9752 75.9354 57.822 78.2553 57.8076 80.5779C57.8076 80.5779 59.0265 80.0355 59.635 80.2386C60.0529 80.352 60.4998 80.3075 60.885 80.114C60.885 80.114 60.5749 75.401 60.6285 73.199C60.7546 68.1408 57.8461 63.3686 57.8461 63.3686L57.2835 63.1862Z" fill="#C53F3F"/>
<path opacity="0.3" d="M57.2835 63.1862C57.1162 63.0787 56.92 63.0211 56.7191 63.0208C56.5183 63.0205 56.3218 63.0773 56.1542 63.1842C56.1542 63.1842 55.6379 62.8751 55.4002 63.1418C55.4002 63.1418 58.7627 69.3772 58.2664 73.6299C57.9752 75.9354 57.822 78.2553 57.8076 80.5779C57.8076 80.5779 59.0265 80.0355 59.635 80.2386C60.0529 80.352 60.4998 80.3075 60.885 80.114C60.885 80.114 60.5749 75.401 60.6285 73.199C60.7546 68.1408 57.8461 63.3686 57.8461 63.3686L57.2835 63.1862Z" fill="black"/>
<path d="M62.4089 58.3317C62.5535 58.454 62.7218 58.5474 62.904 58.6065C63.0862 58.6656 63.2787 58.6892 63.4703 58.676C63.483 58.6745 63.4947 58.669 63.5037 58.6604C63.5127 58.6517 63.5185 58.6403 63.52 58.6281C63.5205 58.622 63.5197 58.6158 63.5176 58.61C63.5155 58.6042 63.5122 58.5989 63.5079 58.5944C63.5036 58.5899 63.4983 58.5863 63.4925 58.5838C63.4867 58.5813 63.4804 58.5801 63.4741 58.5801C63.2637 58.5927 63.0531 58.5584 62.8586 58.4796C62.6641 58.4009 62.491 58.2799 62.3526 58.1261C62.3437 58.1188 62.3324 58.1148 62.3208 58.1148C62.3091 58.1148 62.2978 58.1188 62.2889 58.126C62.2802 58.1354 62.2753 58.1476 62.2753 58.1602C62.2753 58.1728 62.2801 58.185 62.2888 58.1945C62.3205 58.2493 62.3629 58.2905 62.4089 58.3317Z" fill="#2E353A"/>
<path d="M70.5512 63.3936C70.5512 63.3936 71.9517 71.9887 73.9755 70.7181C75.7299 69.6218 73.0243 64.2677 72.22 62.7012C72.2008 62.6649 72.1723 62.634 72.1371 62.6115C72.102 62.589 72.0614 62.5757 72.0193 62.5729C71.9773 62.57 71.9352 62.5778 71.8972 62.5953C71.8591 62.6129 71.8264 62.6397 71.8023 62.6731C71.6535 62.8673 71.4662 63.0311 71.2515 63.1548C71.0367 63.2784 70.7987 63.3596 70.5512 63.3936Z" fill="#C53F3F"/>
<path d="M58.4782 62.4249C58.4782 62.4249 60.3181 64.9726 61.9758 64.4857C63.2368 64.1214 61.8864 63.0369 61.8864 63.0369C62.0151 63.0079 62.1488 63.0061 62.2783 63.0318C62.4078 63.0574 62.5301 63.1098 62.6367 63.1854C62.6367 63.1854 62.8918 63.066 63.238 63.481C63.238 63.481 64.5708 66.4354 62.4919 66.8462C59.3966 67.4574 57.2838 63.1763 57.2838 63.1763C57.2838 63.1763 57.6705 62.718 58.0243 62.8351C58.0243 62.8591 57.8692 62.4684 58.4782 62.4249Z" fill="#C53F3F"/>
<path opacity="0.3" d="M58.4782 62.4249C58.4782 62.4249 60.3181 64.9726 61.9758 64.4857C63.2368 64.1214 61.8864 63.0369 61.8864 63.0369C62.0151 63.0079 62.1488 63.0061 62.2783 63.0318C62.4078 63.0574 62.5301 63.1098 62.6367 63.1854C62.6367 63.1854 62.8918 63.066 63.238 63.481C63.238 63.481 64.5708 66.4354 62.4919 66.8462C59.3966 67.4574 57.2838 63.1763 57.2838 63.1763C57.2838 63.1763 57.6705 62.718 58.0243 62.8351C58.0243 62.8591 57.8692 62.4684 58.4782 62.4249Z" fill="black"/>
<path opacity="0.2" d="M64.9501 75.6406L60.1888 75.4167L53.7496 63.4979C53.7238 63.5107 53.6999 63.5268 53.6787 63.5457C53.2697 63.88 53.0143 64.3573 52.9682 64.8733C52.9677 65.1679 52.9671 65.4864 52.9877 65.8357C53.2533 67.7335 54.7485 70.9416 58.4447 76.6775C58.6501 76.9969 58.9393 77.258 59.2829 77.4343C59.6264 77.6105 60.0121 77.6956 60.4007 77.6809L64.9222 77.3701C64.9232 76.829 64.9242 76.2536 64.9501 75.6406Z" fill="black"/>
<path opacity="0.2" d="M58.6631 63.6997C58.6631 63.6997 61.2189 65.7897 62.3632 65.3396C63.1037 65.0464 62.8115 64.1178 62.8115 64.1178C62.8115 64.1178 63.7996 65.8832 62.4043 66.1205C60.8355 66.385 58.6631 63.6997 58.6631 63.6997Z" fill="black"/>
<path opacity="0.2" d="M57.4883 63.5698L58.7243 65.2603C58.4008 65.0858 58.1218 64.8434 57.9079 64.5508C57.694 64.2583 57.5506 63.9231 57.4883 63.5698Z" fill="black"/>
<path d="M62.9554 63.4457C63.1477 63.3596 63.3583 63.319 63.5701 63.3271C63.7818 63.3352 63.9885 63.3918 64.1731 63.4923C64.1731 63.4923 64.6257 65.7431 64.9275 67.2163C65.2293 68.6894 65.3498 70.5458 65.047 73.5146C64.9045 75.5554 64.8937 77.6027 65.0146 79.6448C64.8277 79.5358 64.6136 79.4781 64.3953 79.4777C64.1771 79.4773 63.9628 79.5344 63.7755 79.6427C63.6014 79.7534 63.3891 79.793 63.1849 79.7528C62.9807 79.7127 62.8012 79.5961 62.6855 79.4285C62.6855 79.4285 62.8716 76.3911 63.4044 73.4912C63.8378 70.7603 63.8201 67.9802 63.3521 65.2546L62.9554 63.4457Z" fill="#C53F3F"/>
<path opacity="0.3" d="M62.9554 63.4457C63.1477 63.3596 63.3583 63.319 63.5701 63.3271C63.7818 63.3352 63.9885 63.3918 64.1731 63.4923C64.1731 63.4923 64.6257 65.7431 64.9275 67.2163C65.2293 68.6894 65.3498 70.5458 65.047 73.5146C64.9045 75.5554 64.8937 77.6027 65.0146 79.6448C64.8277 79.5358 64.6136 79.4781 64.3953 79.4777C64.1771 79.4773 63.9628 79.5344 63.7755 79.6427C63.6014 79.7534 63.3891 79.793 63.1849 79.7528C62.9807 79.7127 62.8012 79.5961 62.6855 79.4285C62.6855 79.4285 62.8716 76.3911 63.4044 73.4912C63.8378 70.7603 63.8201 67.9802 63.3521 65.2546L62.9554 63.4457Z" fill="black"/>
<path opacity="0.2" d="M63.3467 63.9917C63.3467 63.9917 63.8306 64.5679 63.5875 65.8826C63.5875 65.8826 64.4704 65.1409 63.3467 63.9917Z" fill="black"/>
<path d="M57.5872 57.5839C57.8088 57.9963 58.19 58.3072 58.6477 58.4487C59.2598 58.6278 59.5794 58.1078 59.4211 57.5356C59.2805 57.0285 58.7896 56.3188 58.17 56.3862C58.0617 56.3995 57.9572 56.4335 57.8626 56.4862C57.768 56.539 57.6853 56.6095 57.6192 56.6936C57.5531 56.7776 57.505 56.8736 57.4778 56.9759C57.4505 57.0781 57.4445 57.1846 57.4603 57.2891C57.48 57.3951 57.5233 57.4957 57.5872 57.5839Z" fill="#B97964"/>
<path d="M71.2471 74.5084L72.164 74.51L74.9334 74.0113C75.0843 73.9856 75.2396 73.9981 75.384 74.0475C75.5284 74.097 75.6572 74.1817 75.7578 74.2935L77.8425 76.5437L76.6316 76.5793L75.5065 76.2007C75.5065 76.2007 73.8694 77.0095 71.4357 75.9403L71.2471 74.5084Z" fill="#B97964"/>
<path d="M60.9754 73.7204C60.9754 73.7204 55.3647 61.7242 53.439 63.5394C52.1056 64.7975 52.5221 67.4181 58.9105 76.1553C59.1321 76.4568 59.4318 76.6966 59.7795 76.8505C60.1273 77.0044 60.5108 77.067 60.8915 77.032L71.6799 76.3654C71.5441 75.6671 71.5454 74.9502 71.6838 74.2524L60.9754 73.7204Z" fill="#C53F3F"/>
<path d="M90.2349 118.652L89.906 118.463L89.9726 81.8967C89.9721 81.699 89.8908 81.5095 89.7465 81.3694C89.6022 81.2293 89.4066 81.1501 89.2022 81.1488L87.0179 81.1451C86.8132 81.1447 86.6167 81.2231 86.4717 81.3628C86.3267 81.5026 86.2451 81.6924 86.2447 81.8904L86.1781 118.456L85.8449 118.644C83.7057 119.839 81.2774 120.465 78.8071 120.457C78.2988 120.457 77.8109 120.651 77.4505 120.998C77.0902 121.344 76.8867 121.815 76.8849 122.307L99.1886 122.345C99.189 122.102 99.1399 121.861 99.0441 121.636C98.9482 121.411 98.8075 121.206 98.63 121.034C98.4524 120.862 98.2416 120.725 98.0094 120.631C97.7771 120.538 97.5282 120.489 97.2767 120.489C94.8029 120.489 92.3732 119.855 90.2349 118.652Z" fill="#C53F3F"/>
<path opacity="0.2" d="M89.9673 83.7473L89.9707 81.898C89.9701 81.7002 89.8888 81.5107 89.7446 81.3707C89.6003 81.2306 89.4047 81.1513 89.2003 81.1501L87.0159 81.1463C86.8112 81.146 86.6148 81.2243 86.4698 81.3641C86.3248 81.5038 86.2431 81.6936 86.2428 81.8916L86.2394 83.741L89.9673 83.7473Z" fill="black"/>
<path d="M70.333 79.8979L105.884 79.9586L105.883 80.9621C105.882 81.2772 105.752 81.5793 105.521 81.8018C105.29 82.0242 104.978 82.1489 104.652 82.1483L71.5575 82.0919C71.2317 82.0913 70.9194 81.9656 70.6895 81.7423C70.4595 81.5191 70.3306 81.2166 70.3312 80.9014L70.333 79.8979Z" fill="#C53F3F"/>
<path opacity="0.3" d="M70.333 79.8979L105.884 79.9586L105.883 80.9621C105.882 81.2772 105.752 81.5793 105.521 81.8018C105.29 82.0242 104.978 82.1489 104.652 82.1483L71.5575 82.0919C71.2317 82.0913 70.9194 81.9656 70.6895 81.7423C70.4595 81.5191 70.3306 81.2166 70.3312 80.9014L70.333 79.8979Z" fill="white"/>
<path d="M107.16 77.772L69.0665 77.707C68.4408 77.7059 67.9327 78.1957 67.9316 78.801C67.9305 79.4063 68.4368 79.8978 69.0625 79.8988L107.156 79.9638C107.781 79.9649 108.29 79.4751 108.291 78.8699C108.292 78.2646 107.785 77.7731 107.16 77.772Z" fill="#C53F3F"/>
<path opacity="0.4" d="M107.16 77.772L69.0665 77.707C68.4408 77.7059 67.9327 78.1957 67.9316 78.801C67.9305 79.4063 68.4368 79.8978 69.0625 79.8988L107.156 79.9638C107.781 79.9649 108.29 79.4751 108.291 78.8699C108.292 78.2646 107.785 77.7731 107.16 77.772Z" fill="white"/>
<path opacity="0.2" d="M88.4712 81.5351L88.4742 79.9289L70.3338 79.898L70.3309 81.5042C70.3188 81.6465 70.365 81.7877 70.4595 81.8974C70.554 82.0071 70.6892 82.0765 70.8361 82.0907L87.9498 82.1199C88.0238 82.1148 88.096 82.0956 88.1623 82.0634C88.2286 82.0313 88.2877 81.9867 88.3362 81.9324C88.3847 81.878 88.4215 81.815 88.4447 81.7468C88.4679 81.6786 88.4769 81.6067 88.4712 81.5351Z" fill="black"/>
<path opacity="0.2" d="M90.8789 79.1552L90.88 78.5251C90.8962 78.3357 90.8349 78.1477 90.7095 78.0015C90.584 77.8553 90.4042 77.7625 90.2088 77.7431L68.6132 77.7062C68.4171 77.7242 68.2361 77.816 68.1093 77.9618C67.9825 78.1077 67.9201 78.2959 67.9356 78.4859L67.9344 79.1161C67.9183 79.3056 67.9802 79.4937 68.1065 79.6394C68.2328 79.7852 68.4134 79.8769 68.6092 79.8946L90.2048 79.9315C90.4 79.9136 90.5801 79.8221 90.7062 79.6769C90.8323 79.5317 90.8943 79.3443 90.8789 79.1552Z" fill="black"/>
<path d="M93.1154 77.7255L81.2732 77.7053C80.9671 77.7048 80.6737 77.5867 80.4577 77.3769C80.2416 77.1672 80.1206 76.883 80.1211 76.5869L94.2822 76.6111C94.2819 76.7586 94.2514 76.9045 94.1925 77.0406C94.1336 77.1766 94.0474 77.3 93.9389 77.4036C93.8304 77.5072 93.7018 77.589 93.5604 77.6443C93.4191 77.6995 93.2678 77.7272 93.1154 77.7255Z" fill="#263238"/>
<path opacity="0.2" d="M93.1154 77.7255L81.2732 77.7053C80.9671 77.7048 80.6737 77.5867 80.4577 77.3769C80.2416 77.1672 80.1206 76.883 80.1211 76.5869L94.2822 76.6111C94.2819 76.7586 94.2514 76.9045 94.1925 77.0406C94.1336 77.1766 94.0474 77.3 93.9389 77.4036C93.8304 77.5072 93.7018 77.589 93.5604 77.6443C93.4191 77.6995 93.2678 77.7272 93.1154 77.7255Z" fill="white"/>
<path d="M84.841 77.7104L72.9988 77.6902C72.6927 77.6897 72.3993 77.5716 72.1833 77.3618C71.9672 77.1521 71.8461 76.8679 71.8467 76.5718L86.0077 76.5959C86.0075 76.7434 85.977 76.8894 85.9181 77.0254C85.8592 77.1615 85.773 77.2848 85.6645 77.3885C85.556 77.4921 85.4274 77.5739 85.286 77.6292C85.1447 77.6844 84.9934 77.712 84.841 77.7104Z" fill="#263238"/>
<path opacity="0.5" d="M84.841 77.7104L72.9988 77.6902C72.6927 77.6897 72.3993 77.5716 72.1833 77.3618C71.9672 77.1521 71.8461 76.8679 71.8467 76.5718L86.0077 76.5959C86.0075 76.7434 85.977 76.8894 85.9181 77.0254C85.8592 77.1615 85.773 77.2848 85.6645 77.3885C85.556 77.4921 85.4274 77.5739 85.286 77.6292C85.1447 77.6844 84.9934 77.712 84.841 77.7104Z" fill="white"/>
<path d="M93.2112 77.3857L85.989 77.3734C85.9467 77.3725 85.9052 77.3621 85.8677 77.343C85.8303 77.324 85.7979 77.2967 85.7732 77.2634C85.7486 77.2301 85.7322 77.1918 85.7256 77.1513C85.7189 77.1109 85.722 77.0695 85.7348 77.0305L89.7127 66.0952C89.7664 65.9484 89.8658 65.8213 89.9972 65.7314C90.1286 65.6414 90.2855 65.5931 90.4465 65.593L97.6651 65.6053C97.7077 65.6056 97.7497 65.6156 97.7876 65.6345C97.8255 65.6533 97.8583 65.6805 97.8833 65.7139C97.9084 65.7472 97.9251 65.7858 97.9319 65.8265C97.9388 65.8672 97.9357 65.9089 97.9229 65.9482L93.9449 76.8835C93.8913 77.0303 93.7919 77.1574 93.6605 77.2473C93.5291 77.3372 93.3721 77.3856 93.2112 77.3857Z" fill="#263238"/>
<path opacity="0.5" d="M93.2112 77.3857L85.989 77.3734C85.9467 77.3725 85.9052 77.3621 85.8677 77.343C85.8303 77.324 85.7979 77.2967 85.7732 77.2634C85.7486 77.2301 85.7322 77.1918 85.7256 77.1513C85.7189 77.1109 85.722 77.0695 85.7348 77.0305L89.7127 66.0952C89.7664 65.9484 89.8658 65.8213 89.9972 65.7314C90.1286 65.6414 90.2855 65.5931 90.4465 65.593L97.6651 65.6053C97.7077 65.6056 97.7497 65.6156 97.7876 65.6345C97.8255 65.6533 97.8583 65.6805 97.8833 65.7139C97.9084 65.7472 97.9251 65.7858 97.9319 65.8265C97.9388 65.8672 97.9357 65.9089 97.9229 65.9482L93.9449 76.8835C93.8913 77.0303 93.7919 77.1574 93.6605 77.2473C93.5291 77.3372 93.3721 77.3856 93.2112 77.3857Z" fill="white"/>
<path d="M93.5578 77.3862L86.3392 77.3739C86.2966 77.3735 86.2547 77.3635 86.2168 77.3447C86.1788 77.3258 86.146 77.2986 86.121 77.2653C86.0959 77.2319 86.0793 77.1934 86.0724 77.1527C86.0655 77.112 86.0686 77.0703 86.0814 77.0309L90.0594 66.0957C90.1131 65.9489 90.2124 65.8218 90.3438 65.7318C90.4752 65.6419 90.6322 65.5936 90.7931 65.5935L98.0153 65.6058C98.0576 65.6068 98.0992 65.6173 98.1367 65.6363C98.1742 65.6554 98.2067 65.6826 98.2316 65.7157C98.2566 65.7489 98.2733 65.7871 98.2805 65.8275C98.2877 65.8679 98.2851 65.9094 98.2731 65.9487L94.2916 76.884C94.2379 77.0308 94.1386 77.1579 94.0072 77.2478C93.8758 77.3377 93.7188 77.3861 93.5578 77.3862Z" fill="#263238"/>
<path opacity="0.7" d="M93.5578 77.3862L86.3392 77.3739C86.2966 77.3735 86.2547 77.3635 86.2168 77.3447C86.1788 77.3258 86.146 77.2986 86.121 77.2653C86.0959 77.2319 86.0793 77.1934 86.0724 77.1527C86.0655 77.112 86.0686 77.0703 86.0814 77.0309L90.0594 66.0957C90.1131 65.9489 90.2124 65.8218 90.3438 65.7318C90.4752 65.6419 90.6322 65.5936 90.7931 65.5935L98.0153 65.6058C98.0576 65.6068 98.0992 65.6173 98.1367 65.6363C98.1742 65.6554 98.2067 65.6826 98.2316 65.7157C98.2566 65.7489 98.2733 65.7871 98.2805 65.8275C98.2877 65.8679 98.2851 65.9094 98.2731 65.9487L94.2916 76.884C94.2379 77.0308 94.1386 77.1579 94.0072 77.2478C93.8758 77.3377 93.7188 77.3861 93.5578 77.3862Z" fill="white"/>
<path d="M92.7614 71.4881C92.6686 71.9058 92.367 72.2443 92.0909 72.2439C91.8148 72.2434 91.6632 71.9006 91.756 71.4864C91.8488 71.0722 92.1503 70.7268 92.4265 70.7273C92.7026 70.7277 92.8542 71.067 92.7614 71.4881Z" fill="white"/>
</svg>
