<svg width="120" height="120" viewBox="0 0 120 120" fill="none" xmlns="http://www.w3.org/2000/svg">
<path d="M60 120C26.8348 120 0 93.1254 0 60C0 26.8348 26.8746 0 60 0C93.1652 0 120 26.8746 120 60C120.04 93.1652 93.1652 120 60 120Z" fill="#B5E2C9"/>
<mask id="mask0_553_13806" style="mask-type:alpha" maskUnits="userSpaceOnUse" x="0" y="0" width="120" height="120">
<path d="M60 120C26.8348 120 0 93.1254 0 60C0 26.8348 26.8746 0 60 0C93.1652 0 120 26.8746 120 60C120.04 93.1652 93.1652 120 60 120Z" fill="#F7C0B5"/>
</mask>
<g mask="url(#mask0_553_13806)">
<path d="M93.6001 110.523C93.3201 110.723 93.0001 110.923 92.7201 111.123C92.4001 111.323 92.1201 111.523 91.8001 111.683C91.5201 111.843 91.2801 112.003 91.0001 112.163C90.9601 112.203 90.9201 112.203 90.8801 112.243C89.9601 112.803 89.0001 113.323 88.0401 113.803C87.7601 113.963 87.4401 114.123 87.1601 114.243C87.1601 114.243 87.1201 114.283 87.0801 114.283C86.7601 114.443 86.4401 114.603 86.1201 114.763C85.4801 115.083 84.8001 115.363 84.1601 115.643C83.8401 115.803 83.4801 115.923 83.1601 116.043C82.8401 116.163 82.4801 116.323 82.1601 116.443C81.8401 116.563 81.4801 116.723 81.1601 116.843C81.1601 116.843 81.1601 116.843 81.1201 116.843C80.8001 116.963 80.4401 117.083 80.1201 117.203C79.4001 117.443 78.6401 117.683 77.9201 117.923C77.6801 118.003 77.4001 118.083 77.1601 118.163C76.4001 118.403 75.6401 118.603 74.8801 118.763C74.6001 118.843 74.3201 118.883 74.0001 118.963C73.2801 119.123 72.5201 119.283 71.8001 119.443C71.6401 119.483 71.5201 119.483 71.3601 119.523C71.1201 119.563 70.8401 119.603 70.6001 119.643C70.2401 119.683 69.9201 119.763 69.5601 119.803C69.4001 119.843 69.2401 119.843 69.0801 119.883C68.8801 119.923 68.6401 119.963 68.4001 119.963C67.7601 120.043 67.0801 120.123 66.4401 120.203C66.2401 120.243 66.0001 120.243 65.8001 120.283H65.7601C65.4801 120.323 65.2001 120.323 64.9201 120.363C64.6401 120.403 64.3601 120.403 64.0801 120.403C63.9201 120.403 63.7201 120.443 63.5601 120.443C63.2401 120.443 62.9601 120.483 62.6801 120.483C62.2801 120.483 61.9201 120.523 61.5201 120.523C61.1201 120.523 60.7601 120.523 60.3601 120.523C60.0801 120.523 59.8001 120.523 59.5201 120.523C42.6801 120.283 27.4801 113.123 16.6801 101.763C16.6801 101.763 16.6801 101.723 16.6401 101.723C17.8801 99.2832 22.4801 94.8832 27.2801 91.2432C33.3601 86.6432 41.9601 83.8032 41.9601 83.8032C41.9601 83.8032 47.6001 82.8832 68.5201 87.2432C84.4801 90.6032 91.2801 104.243 93.6001 110.523Z" fill="#F7D3B5"/>
<path d="M72.9599 98.3235C72.1199 102.444 66.6799 104.884 57.52 101.204C46.28 96.6435 41.96 83.8035 41.96 83.8035C41.36 74.6035 39.96 66.7235 39.96 66.7235C52.96 65.6035 68.3199 80.8035 68.3199 80.8035L70.0799 88.3235C70.2399 88.9635 70.5599 89.5235 71.0399 89.9235C71.8799 91.3635 73.5199 95.6835 72.9599 98.3235Z" fill="#F7D3B5"/>
<path d="M71.0402 89.9635C63.4002 89.5635 57.7602 88.4435 51.7202 77.6035C56.8402 82.1235 62.8802 83.8435 69.2402 84.6435L70.0802 88.3235C70.2402 89.0035 70.5602 89.5635 71.0402 89.9635Z" fill="#EFBDA5"/>
<path d="M86.84 41.7633C87.56 45.1233 87.92 47.8433 85.96 56.8033C84 65.7633 87.76 74.7233 78.32 82.9233C71.96 88.4433 60.84 89.4833 51.96 83.4433C48.96 81.4033 46.2 78.5633 43.96 74.8433C42.2 71.9233 40.16 69.1633 37.88 66.6433C34.72 63.2033 30.92 56.2833 32.8 44.0433C35.84 24.1234 55.56 21.8434 67.2 24.0434C78.84 26.2434 84.88 32.8833 86.84 41.7633Z" fill="#F7D3B5"/>
<path d="M48.5603 57.4035C48.5603 57.4035 47.3203 51.4035 41.4803 52.1235C36.4403 52.7635 34.6803 64.8435 46.1203 68.2035" fill="#F7D3B5"/>
<path d="M45.7605 62.7234C45.7605 62.7234 44.3205 61.8034 44.4805 60.2034C44.7205 58.3234 44.4805 57.1634 43.6005 56.8034C41.4005 55.8834 40.9605 58.4434 41.0405 58.7634" stroke="#423232" stroke-width="1.27528" stroke-miterlimit="10" stroke-linecap="round" stroke-linejoin="round"/>
<path d="M76.2804 66.6036C76.2804 66.6036 77.8004 66.6836 79.2404 64.9636C80.0404 64.0036 80.7204 62.8036 80.2804 62.4436C79.8404 62.0436 72.6004 63.1636 72.1204 64.1236C71.6404 65.0836 74.4404 66.6036 76.2804 66.6036Z" fill="#EFBDA5"/>
<path d="M77.4804 53.1636C77.4804 53.1636 77.5604 56.9636 80.0004 61.2036C81.0804 63.0836 79.4404 66.1636 75.8804 66.6836" stroke="#423232" stroke-width="1.27528" stroke-miterlimit="10" stroke-linecap="round" stroke-linejoin="round"/>
<path opacity="0.42" d="M55.8002 68.6433C58.0756 68.6433 59.9202 67.121 59.9202 65.2433C59.9202 63.3655 58.0756 61.8433 55.8002 61.8433C53.5248 61.8433 51.6802 63.3655 51.6802 65.2433C51.6802 67.121 53.5248 68.6433 55.8002 68.6433Z" fill="#ED938A"/>
<path opacity="0.42" d="M85.32 61.9233C85.2 64.1633 85.24 66.3633 85.08 68.5633C83.32 68.1633 82.04 66.8433 82.04 65.2833C82.04 63.6033 83.44 62.2433 85.32 61.9233Z" fill="#ED938A"/>
<path d="M107.679 135.488L6.35926 133.248C5.31926 107.728 15.7993 94.248 19.9193 91.608C27.6393 86.608 37.6793 85.128 42.3993 84.688C43.5993 87.648 48.1593 97.368 57.6393 101.208C66.7993 104.928 72.2393 102.448 73.0793 98.328C73.5993 95.688 71.9593 91.368 71.1193 89.968C70.6393 89.568 70.3193 88.968 70.1593 88.368L69.8393 87.048C70.5193 86.888 71.1993 86.728 71.8793 86.488C88.6393 88.368 95.4393 92.928 99.4393 100.728C103.559 108.768 107.679 135.488 107.679 135.488Z" fill="#474E51"/>
<path d="M24.1196 135.328C24.1196 135.328 23.5996 122.368 23.0796 119.968" stroke="#544D4D" stroke-width="1.27528" stroke-miterlimit="10" stroke-linecap="round" stroke-linejoin="round"/>
<path d="M94.9993 135.328C94.9993 135.328 93.7993 127.288 93.7993 125.888C93.7993 124.528 94.8393 120.048 94.9993 116.128" stroke="#544D4D" stroke-width="1.27528" stroke-miterlimit="10" stroke-linecap="round" stroke-linejoin="round"/>
<path d="M63.2794 109.768L61.8394 139.608C61.8394 139.608 74.5194 148.248 74.5194 148.008C74.5194 147.768 80.5194 137.288 80.5194 137.288L71.1594 108.568C71.1594 108.568 69.9594 109.808 63.2794 109.768Z" fill="#D85656"/>
<path d="M66.1594 100.168C66.1594 100.168 60.6794 105.328 59.9594 106.688C59.2394 108.048 63.0394 110.208 63.0394 110.208C63.0394 110.208 69.1594 111.488 71.9194 109.008C71.9194 109.008 73.4794 107.288 73.1594 105.648C72.8794 104.048 66.1594 100.168 66.1594 100.168Z" fill="#EA6363"/>
<path d="M41.2394 79.9681L41.7594 79.8481C43.2394 84.6081 52.6394 95.8481 66.1594 100.168L57.7594 110.768C57.1994 111.488 56.1994 111.608 55.4794 111.088C52.0394 108.528 42.8394 101.008 39.0794 91.4081C38.2794 89.4081 38.1194 87.2081 38.5194 85.1281L39.0394 82.2881C39.2394 81.1281 40.1194 80.2081 41.2394 79.9681Z" fill="white"/>
<path d="M77.3596 107.128C77.1196 108.448 75.5596 108.968 74.5596 108.048L66.1196 100.168C66.1196 100.168 71.0396 95.4878 69.8396 87.0078C71.4796 86.6478 73.0396 86.1278 74.4796 85.4478C74.5196 85.5278 75.0796 86.6078 75.7196 88.4078C77.0796 92.1278 78.7996 98.9677 77.3596 107.128Z" fill="white"/>
<path d="M64.5882 54.4852C64.5882 54.5252 64.5882 54.5652 64.5882 54.5652L64.5482 55.6852C64.5082 56.6452 63.7082 57.3652 62.7482 57.3252C61.7882 57.2852 61.0682 56.4452 61.1482 55.5252L61.1882 54.4052C61.1882 54.2052 61.2682 53.9652 61.3482 53.8052L64.5482 53.9652C64.5482 54.1252 64.5882 54.2852 64.5882 54.4852Z" fill="#423232"/>
<path d="M81.3081 55.365L81.2681 56.405C81.2281 57.285 80.4681 57.965 79.5881 57.925C78.7081 57.885 78.0281 57.125 78.0681 56.245L78.1081 55.205C78.1081 55.005 78.1481 54.805 78.2281 54.645L81.2281 54.765C81.3081 54.965 81.3081 55.165 81.3081 55.365Z" fill="#423232"/>
<path d="M68.5879 49.0051C69.4679 49.1251 70.1479 48.2051 69.8279 47.3251C69.6679 46.8451 69.3879 46.4051 68.9479 46.1251C67.5879 45.2851 62.5079 45.2051 59.8279 47.1251C57.4679 48.8851 64.5879 48.4451 68.5879 49.0051Z" fill="#423232"/>
<path d="M79.6679 49.4449C78.9479 49.4449 78.5079 48.5249 78.8679 47.7649C79.0679 47.3649 79.3479 47.0049 79.7479 46.8049C80.9879 46.2049 84.3079 46.5649 85.7879 48.6049C87.1079 50.4049 82.9879 49.4049 79.6679 49.4449Z" fill="#423232"/>
<path d="M67.1879 54.0451L64.5079 53.9251L61.3079 53.8051L60.5879 53.7651" stroke="#423232" stroke-width="1.27528" stroke-miterlimit="10" stroke-linecap="round" stroke-linejoin="round"/>
<path d="M82.9879 54.845L81.2279 54.765L78.2279 54.645H78.1079" stroke="#423232" stroke-width="1.27528" stroke-miterlimit="10" stroke-linecap="round" stroke-linejoin="round"/>
<path d="M74.4994 71.4038C74.5419 72.0839 74.0318 73.2742 73.0966 74.1244C68.293 71.1912 66.125 72.7216 66.125 72.7216C64.4247 70.1285 64.8073 66.6002 68.9306 69.2783C71.8213 71.1062 73.5642 71.4038 74.4994 71.4038Z" fill="#423232"/>
<path d="M73.0965 74.1246C72.0763 75.0173 70.546 75.5699 68.463 74.7197C67.4853 74.3371 66.7201 73.572 66.125 72.7218C66.125 72.7218 68.293 71.1915 73.0965 74.1246Z" fill="#FE9DAB"/>
<path d="M75.307 71.2337C75.307 71.2337 73.5216 72.2114 68.9306 69.2783C63.447 65.75 64.5522 73.1467 68.4205 74.7195C72.4589 76.3774 74.5419 72.7641 74.4994 71.4038" stroke="#423232" stroke-width="1.27528" stroke-miterlimit="10" stroke-linecap="round" stroke-linejoin="round"/>
<path d="M66.125 72.7218C66.125 72.7218 68.293 71.1915 73.0965 74.1246" stroke="#423232" stroke-width="1.27528" stroke-miterlimit="10" stroke-linecap="round" stroke-linejoin="round"/>
<path d="M87.4392 41.1072C87.3192 40.5072 87.1592 39.8672 86.9592 39.2672C86.7592 38.6672 86.2792 38.1472 85.6392 38.0272C83.5592 37.6672 81.5592 34.0672 78.6792 33.6672C69.5192 32.4272 63.3992 33.1872 54.7992 36.5472C45.9192 39.9872 55.4392 52.4272 49.0792 56.5072C48.7592 55.3872 47.1992 50.8272 42.0792 51.4672C37.2392 52.0672 35.3992 63.2672 45.3992 67.1072C41.0392 74.2272 41.3592 71.3872 38.1592 67.5472C34.9592 63.7072 28.5592 53.7472 32.8792 39.1872C37.1992 24.6272 56.7592 17.0272 74.9592 24.4272C78.0792 25.7072 79.9592 28.8672 82.6792 29.3872C107.999 34.2272 88.0392 43.9872 87.4392 41.1072Z" fill="#423232"/>
<path d="M62.8395 33.547C62.8395 33.547 59.4395 32.547 57.3995 37.867C55.3595 43.187 48.2395 50.507 42.3195 41.987C36.3995 33.507 45.2795 26.707 54.5195 29.467C63.7595 32.227 62.7195 30.147 62.8395 33.547Z" fill="#423232"/>
<path d="M68.7194 29.667C68.7194 29.667 77.7194 35.387 83.6394 33.147C87.3594 31.747 91.5594 26.587 88.6394 22.747C85.1594 18.147 74.3994 21.627 68.3994 19.707C59.3994 16.827 45.4394 14.907 38.8794 25.707C37.2394 28.427 35.7594 31.187 33.4394 33.347C31.0394 35.587 28.6394 39.227 28.4394 44.907C28.0794 56.227 36.9594 66.067 36.9594 66.067C36.9594 66.067 31.6794 46.707 41.6394 43.827C51.5994 40.947 54.3594 30.987 60.9594 30.987C67.5594 30.987 64.4794 23.547 68.7194 29.667Z" fill="#423232"/>
<path d="M77.4795 34.7469C77.4795 34.7469 84.7195 43.7869 90.1595 43.2669C95.5995 42.7469 101.72 31.0669 86.7595 27.0669C71.7995 23.0669 77.4795 34.7469 77.4795 34.7469Z" fill="#423232"/>
<path d="M62.8397 33.5468C62.8397 33.5468 67.5997 45.3068 80.2397 46.7068C92.9197 48.1468 98.0397 24.9468 78.6797 22.7468C59.3197 20.5468 62.8397 33.5468 62.8397 33.5468Z" fill="#423232"/>
<path d="M52.7194 28.027C52.7194 28.027 55.6794 41.467 61.9194 42.067C68.1594 42.667 66.4794 25.307 58.3194 24.107C50.1594 22.907 52.7194 28.027 52.7194 28.027Z" fill="#423232"/>
<path d="M69.1599 61.7597H59.8399C57.3999 61.7597 55.4399 59.7997 55.4399 57.3597V53.5597C55.4399 51.1197 57.3999 49.1597 59.8399 49.1597H69.1599C71.5999 49.1597 73.5599 51.1197 73.5599 53.5597V57.3597C73.5599 59.7997 71.5599 61.7597 69.1599 61.7597Z" stroke="#423232" stroke-width="1.27528" stroke-miterlimit="10" stroke-linecap="round" stroke-linejoin="round"/>
<path d="M85.2397 49.1597H80.6397C79.0397 49.1597 77.7197 50.4797 77.7197 52.0797V55.5597C78.2797 57.5597 79.0797 59.4797 80.2797 61.1997C80.3997 61.1997 80.5197 61.2397 80.6397 61.2397H85.2397C86.8397 61.2397 88.1597 59.9197 88.1597 58.3197V52.0797C88.1997 50.4397 86.8797 49.1597 85.2397 49.1597Z" stroke="#423232" stroke-width="1.27528" stroke-miterlimit="10" stroke-linecap="round" stroke-linejoin="round"/>
<path d="M73.5596 52.7996C74.9196 52.6396 76.6396 52.5196 78.0796 52.6796" stroke="#423232" stroke-width="1.27528" stroke-miterlimit="10" stroke-linecap="round" stroke-linejoin="round"/>
<path d="M55.4397 53.0801L46.1597 53.4001" stroke="#423232" stroke-width="1.27528" stroke-miterlimit="10" stroke-linecap="round" stroke-linejoin="round"/>
</g>
</svg>
