<svg width="54" height="55" viewBox="0 0 54 55" fill="none" xmlns="http://www.w3.org/2000/svg">
<g clip-path="url(#clip0_720_19956)">
<path d="M42.6182 20.7711L45.422 14.6027L51.5904 11.7989L45.422 8.99506L42.6182 2.82666L39.8143 8.99506L33.6459 11.7989L39.8143 14.6027L42.6182 20.7711ZM25.7952 21.8926L20.1876 9.55583L14.58 21.8926L2.24316 27.5003L14.58 33.1079L20.1876 45.4447L25.7952 33.1079L38.1321 27.5003L25.7952 21.8926ZM42.6182 34.2294L39.8143 40.3978L33.6459 43.2017L39.8143 46.0055L42.6182 52.1739L45.422 46.0055L51.5904 43.2017L45.422 40.3978L42.6182 34.2294Z" fill="#C93B25"/>
</g>
<defs>
<clipPath id="clip0_720_19956">
<rect width="53.8333" height="53.8333" fill="white" transform="translate(0 0.583496)"/>
</clipPath>
</defs>
</svg>
